G04 EAGLE Gerber RS-274X export*
G75*
%MOMM*%
%FSLAX34Y34*%
%LPD*%
%INBottom Copper*%
%IPPOS*%
%AMOC8*
5,1,8,0,0,1.08239X$1,22.5*%
G01*
%ADD10C,1.651000*%
%ADD11R,1.800000X1.800000*%
%ADD12C,1.800000*%
%ADD13C,1.590000*%
%ADD14C,4.039000*%
%ADD15C,1.879600*%
%ADD16C,1.388000*%
%ADD17C,1.400000*%
%ADD18C,0.304800*%
%ADD19C,0.914400*%

G36*
X180152Y-2522D02*
X180152Y-2522D01*
X180256Y-2511D01*
X180273Y-2503D01*
X180292Y-2500D01*
X180384Y-2451D01*
X180479Y-2406D01*
X180493Y-2393D01*
X180509Y-2384D01*
X180581Y-2309D01*
X180657Y-2237D01*
X180666Y-2220D01*
X180679Y-2206D01*
X180723Y-2111D01*
X180771Y-2019D01*
X180774Y-2000D01*
X180782Y-1983D01*
X180794Y-1879D01*
X180810Y-1776D01*
X180807Y-1757D01*
X180809Y-1739D01*
X180787Y-1637D01*
X180770Y-1534D01*
X180761Y-1517D01*
X180757Y-1498D01*
X180704Y-1409D01*
X180654Y-1316D01*
X180641Y-1303D01*
X180631Y-1287D01*
X180552Y-1219D01*
X180476Y-1148D01*
X180455Y-1137D01*
X180444Y-1127D01*
X180414Y-1115D01*
X180327Y-1069D01*
X170184Y2912D01*
X160715Y10463D01*
X153892Y20470D01*
X150322Y32044D01*
X150322Y44156D01*
X153892Y55730D01*
X155394Y57933D01*
X156432Y59455D01*
X157470Y60978D01*
X159027Y63261D01*
X159027Y63262D01*
X160065Y64784D01*
X160715Y65737D01*
X170184Y73288D01*
X181458Y77713D01*
X193536Y78619D01*
X195494Y78172D01*
X198829Y77411D01*
X198829Y77410D01*
X202164Y76649D01*
X205345Y75923D01*
X212365Y71870D01*
X212388Y71862D01*
X212407Y71848D01*
X212502Y71818D01*
X212595Y71783D01*
X212619Y71782D01*
X212642Y71775D01*
X212741Y71778D01*
X212841Y71774D01*
X212864Y71781D01*
X212888Y71782D01*
X212981Y71816D01*
X213077Y71844D01*
X213097Y71858D01*
X213119Y71866D01*
X213197Y71928D01*
X213278Y71985D01*
X213292Y72005D01*
X213311Y72020D01*
X213365Y72104D01*
X213424Y72183D01*
X213431Y72206D01*
X213444Y72227D01*
X213468Y72323D01*
X213499Y72418D01*
X213498Y72442D01*
X213504Y72465D01*
X213496Y72564D01*
X213495Y72664D01*
X213487Y72686D01*
X213485Y72710D01*
X213446Y72802D01*
X213413Y72896D01*
X213398Y72915D01*
X213389Y72937D01*
X213284Y73068D01*
X65087Y221264D01*
X65013Y221317D01*
X64944Y221377D01*
X64914Y221389D01*
X64888Y221408D01*
X64801Y221435D01*
X64716Y221469D01*
X64675Y221473D01*
X64652Y221480D01*
X64620Y221479D01*
X64549Y221487D01*
X62085Y221487D01*
X59471Y222570D01*
X57729Y224312D01*
X57655Y224365D01*
X57585Y224425D01*
X57555Y224437D01*
X57529Y224456D01*
X57442Y224483D01*
X57357Y224517D01*
X57316Y224521D01*
X57294Y224528D01*
X57262Y224527D01*
X57190Y224535D01*
X23716Y224535D01*
X21335Y226916D01*
X21335Y255684D01*
X26784Y261132D01*
X26852Y261227D01*
X26922Y261321D01*
X26924Y261327D01*
X26927Y261332D01*
X26962Y261443D01*
X26998Y261555D01*
X26998Y261561D01*
X27000Y261567D01*
X26997Y261684D01*
X26996Y261801D01*
X26993Y261808D01*
X26993Y261813D01*
X26987Y261830D01*
X26949Y261962D01*
X26559Y262902D01*
X26559Y266698D01*
X28012Y270204D01*
X30696Y272888D01*
X34202Y274341D01*
X37998Y274341D01*
X41504Y272888D01*
X44188Y270204D01*
X45641Y266698D01*
X45641Y266629D01*
X45648Y266584D01*
X45646Y266538D01*
X45668Y266463D01*
X45680Y266386D01*
X45702Y266346D01*
X45715Y266302D01*
X45759Y266238D01*
X45796Y266169D01*
X45829Y266137D01*
X45855Y266100D01*
X45917Y266053D01*
X45974Y266000D01*
X46016Y265980D01*
X46052Y265953D01*
X46126Y265929D01*
X46197Y265896D01*
X46243Y265891D01*
X46286Y265877D01*
X46364Y265877D01*
X46441Y265869D01*
X46486Y265879D01*
X46532Y265879D01*
X46664Y265917D01*
X46682Y265921D01*
X46686Y265924D01*
X46693Y265926D01*
X48902Y266841D01*
X52698Y266841D01*
X54967Y265901D01*
X55011Y265890D01*
X55053Y265871D01*
X55130Y265863D01*
X55206Y265845D01*
X55252Y265849D01*
X55297Y265844D01*
X55374Y265861D01*
X55451Y265868D01*
X55493Y265886D01*
X55538Y265896D01*
X55605Y265936D01*
X55676Y265968D01*
X55710Y265999D01*
X55749Y266022D01*
X55799Y266081D01*
X55857Y266134D01*
X55879Y266174D01*
X55909Y266209D01*
X55938Y266282D01*
X55975Y266350D01*
X55984Y266395D01*
X56001Y266437D01*
X56016Y266573D01*
X56019Y266592D01*
X56018Y266597D01*
X56019Y266604D01*
X56019Y266686D01*
X57463Y270170D01*
X60130Y272837D01*
X63614Y274281D01*
X67386Y274281D01*
X70870Y272837D01*
X73537Y270170D01*
X74981Y266686D01*
X74981Y262914D01*
X73537Y259430D01*
X70870Y256763D01*
X67386Y255319D01*
X63614Y255319D01*
X61393Y256239D01*
X61349Y256250D01*
X61307Y256269D01*
X61230Y256278D01*
X61154Y256295D01*
X61108Y256291D01*
X61063Y256296D01*
X60986Y256280D01*
X60909Y256272D01*
X60867Y256254D01*
X60822Y256244D01*
X60755Y256204D01*
X60684Y256172D01*
X60650Y256141D01*
X60611Y256118D01*
X60560Y256059D01*
X60503Y256006D01*
X60481Y255966D01*
X60451Y255931D01*
X60422Y255859D01*
X60385Y255790D01*
X60377Y255746D01*
X60369Y255730D01*
X60368Y255725D01*
X60359Y255703D01*
X60344Y255567D01*
X60341Y255548D01*
X60342Y255543D01*
X60341Y255536D01*
X60341Y255402D01*
X58888Y251896D01*
X56204Y249212D01*
X52698Y247759D01*
X48902Y247759D01*
X45396Y249212D01*
X42712Y251896D01*
X41259Y255402D01*
X41259Y255471D01*
X41252Y255516D01*
X41254Y255562D01*
X41232Y255637D01*
X41220Y255714D01*
X41198Y255754D01*
X41185Y255798D01*
X41141Y255862D01*
X41104Y255931D01*
X41071Y255963D01*
X41045Y256000D01*
X40983Y256047D01*
X40926Y256100D01*
X40884Y256120D01*
X40848Y256147D01*
X40774Y256171D01*
X40703Y256204D01*
X40657Y256209D01*
X40614Y256223D01*
X40536Y256223D01*
X40459Y256231D01*
X40414Y256221D01*
X40368Y256221D01*
X40236Y256183D01*
X40218Y256179D01*
X40214Y256176D01*
X40207Y256174D01*
X37998Y255259D01*
X34202Y255259D01*
X33403Y255590D01*
X33290Y255617D01*
X33176Y255645D01*
X33170Y255645D01*
X33164Y255646D01*
X33047Y255635D01*
X32931Y255626D01*
X32925Y255624D01*
X32919Y255623D01*
X32811Y255575D01*
X32705Y255530D01*
X32699Y255525D01*
X32694Y255523D01*
X32680Y255511D01*
X32574Y255425D01*
X29688Y252539D01*
X29635Y252465D01*
X29575Y252396D01*
X29563Y252366D01*
X29544Y252340D01*
X29517Y252252D01*
X29483Y252168D01*
X29479Y252127D01*
X29472Y252104D01*
X29473Y252072D01*
X29465Y252001D01*
X29465Y233426D01*
X29466Y233415D01*
X29466Y233409D01*
X29467Y233401D01*
X29466Y233387D01*
X29488Y233285D01*
X29504Y233183D01*
X29514Y233166D01*
X29518Y233146D01*
X29571Y233057D01*
X29620Y232966D01*
X29634Y232952D01*
X29644Y232935D01*
X29723Y232868D01*
X29798Y232796D01*
X29816Y232788D01*
X29831Y232775D01*
X29927Y232736D01*
X30021Y232693D01*
X30041Y232691D01*
X30059Y232683D01*
X30226Y232665D01*
X57190Y232665D01*
X57281Y232679D01*
X57371Y232687D01*
X57401Y232699D01*
X57433Y232704D01*
X57514Y232747D01*
X57598Y232783D01*
X57630Y232809D01*
X57651Y232820D01*
X57671Y232841D01*
X57673Y232842D01*
X57677Y232847D01*
X57729Y232888D01*
X59471Y234630D01*
X62085Y235713D01*
X64915Y235713D01*
X67529Y234630D01*
X69530Y232629D01*
X70613Y230015D01*
X70613Y227551D01*
X70627Y227461D01*
X70635Y227370D01*
X70647Y227340D01*
X70652Y227308D01*
X70695Y227228D01*
X70731Y227144D01*
X70757Y227112D01*
X70768Y227091D01*
X70791Y227069D01*
X70836Y227013D01*
X245365Y52484D01*
X245365Y11176D01*
X245368Y11156D01*
X245366Y11137D01*
X245388Y11035D01*
X245404Y10933D01*
X245414Y10916D01*
X245418Y10896D01*
X245471Y10807D01*
X245520Y10716D01*
X245534Y10702D01*
X245544Y10685D01*
X245623Y10618D01*
X245698Y10546D01*
X245716Y10538D01*
X245731Y10525D01*
X245827Y10486D01*
X245921Y10443D01*
X245941Y10441D01*
X245959Y10433D01*
X246126Y10415D01*
X461551Y10415D01*
X461641Y10429D01*
X461732Y10437D01*
X461762Y10449D01*
X461794Y10454D01*
X461874Y10497D01*
X461958Y10533D01*
X461990Y10559D01*
X462011Y10570D01*
X462033Y10593D01*
X462089Y10638D01*
X471962Y20511D01*
X472015Y20585D01*
X472075Y20654D01*
X472087Y20684D01*
X472106Y20710D01*
X472133Y20797D01*
X472146Y20830D01*
X472157Y20855D01*
X472158Y20860D01*
X472167Y20882D01*
X472171Y20923D01*
X472178Y20946D01*
X472177Y20978D01*
X472185Y21049D01*
X472185Y32799D01*
X472174Y32870D01*
X472172Y32942D01*
X472154Y32991D01*
X472146Y33042D01*
X472112Y33105D01*
X472087Y33173D01*
X472055Y33213D01*
X472030Y33259D01*
X471979Y33309D01*
X471934Y33365D01*
X471890Y33393D01*
X471852Y33429D01*
X471787Y33459D01*
X471727Y33498D01*
X471676Y33510D01*
X471629Y33532D01*
X471558Y33540D01*
X471488Y33558D01*
X471436Y33554D01*
X471385Y33559D01*
X471314Y33544D01*
X471243Y33538D01*
X471195Y33518D01*
X471144Y33507D01*
X471083Y33470D01*
X471017Y33442D01*
X470961Y33397D01*
X470933Y33381D01*
X470918Y33363D01*
X470886Y33337D01*
X466745Y29197D01*
X466702Y29136D01*
X466667Y29100D01*
X466654Y29071D01*
X466607Y29008D01*
X466605Y29002D01*
X466602Y28997D01*
X466568Y28886D01*
X466567Y28883D01*
X466564Y28877D01*
X466563Y28873D01*
X466531Y28774D01*
X466531Y28768D01*
X466529Y28762D01*
X466533Y28645D01*
X466534Y28529D01*
X466536Y28521D01*
X466536Y28516D01*
X466542Y28499D01*
X466580Y28367D01*
X467691Y25687D01*
X467691Y21513D01*
X466094Y17657D01*
X463143Y14706D01*
X459287Y13109D01*
X455113Y13109D01*
X451257Y14706D01*
X448306Y17657D01*
X446709Y21513D01*
X446709Y25687D01*
X448306Y29543D01*
X451257Y32494D01*
X455113Y34091D01*
X459287Y34091D01*
X459422Y34035D01*
X459535Y34008D01*
X459649Y33980D01*
X459655Y33980D01*
X459661Y33979D01*
X459778Y33990D01*
X459894Y33999D01*
X459900Y34001D01*
X459906Y34002D01*
X460014Y34050D01*
X460120Y34095D01*
X460126Y34100D01*
X460131Y34102D01*
X460145Y34114D01*
X460194Y34154D01*
X460197Y34156D01*
X460200Y34159D01*
X460251Y34200D01*
X482663Y56612D01*
X482675Y56628D01*
X482691Y56640D01*
X482747Y56728D01*
X482807Y56811D01*
X482813Y56830D01*
X482824Y56847D01*
X482849Y56948D01*
X482879Y57047D01*
X482879Y57066D01*
X482884Y57086D01*
X482876Y57189D01*
X482873Y57292D01*
X482866Y57311D01*
X482864Y57331D01*
X482824Y57426D01*
X482788Y57523D01*
X482776Y57539D01*
X482768Y57557D01*
X482663Y57688D01*
X363537Y176814D01*
X363463Y176867D01*
X363394Y176927D01*
X363364Y176939D01*
X363338Y176958D01*
X363251Y176985D01*
X363166Y177019D01*
X363125Y177023D01*
X363102Y177030D01*
X363070Y177029D01*
X362999Y177037D01*
X360535Y177037D01*
X357921Y178120D01*
X355920Y180121D01*
X354837Y182735D01*
X354837Y185565D01*
X355920Y188179D01*
X357921Y190180D01*
X360535Y191263D01*
X363365Y191263D01*
X365979Y190180D01*
X367980Y188179D01*
X369063Y185565D01*
X369063Y183101D01*
X369077Y183011D01*
X369085Y182920D01*
X369097Y182890D01*
X369102Y182858D01*
X369145Y182778D01*
X369181Y182694D01*
X369207Y182662D01*
X369218Y182641D01*
X369241Y182619D01*
X369286Y182563D01*
X488412Y63437D01*
X488428Y63425D01*
X488440Y63409D01*
X488528Y63353D01*
X488611Y63293D01*
X488630Y63287D01*
X488647Y63276D01*
X488748Y63251D01*
X488847Y63221D01*
X488866Y63221D01*
X488886Y63216D01*
X488989Y63224D01*
X489092Y63227D01*
X489111Y63234D01*
X489131Y63236D01*
X489226Y63276D01*
X489323Y63312D01*
X489339Y63324D01*
X489357Y63332D01*
X489488Y63437D01*
X573562Y147511D01*
X576166Y150115D01*
X642874Y150115D01*
X642894Y150118D01*
X642913Y150116D01*
X643015Y150138D01*
X643117Y150154D01*
X643134Y150164D01*
X643154Y150168D01*
X643243Y150221D01*
X643334Y150270D01*
X643348Y150284D01*
X643365Y150294D01*
X643432Y150373D01*
X643504Y150448D01*
X643512Y150466D01*
X643525Y150481D01*
X643564Y150577D01*
X643607Y150671D01*
X643609Y150691D01*
X643617Y150709D01*
X643635Y150876D01*
X643635Y158383D01*
X643617Y158497D01*
X643599Y158614D01*
X643597Y158620D01*
X643596Y158626D01*
X643541Y158729D01*
X643488Y158834D01*
X643483Y158838D01*
X643480Y158844D01*
X643396Y158923D01*
X643312Y159006D01*
X643306Y159009D01*
X643302Y159013D01*
X643285Y159021D01*
X643165Y159087D01*
X641163Y159916D01*
X637916Y163163D01*
X636159Y167404D01*
X636159Y171996D01*
X637916Y176237D01*
X641163Y179484D01*
X645404Y181241D01*
X649996Y181241D01*
X654237Y179484D01*
X657484Y176237D01*
X659241Y171996D01*
X659241Y167404D01*
X657484Y163163D01*
X654237Y159916D01*
X652235Y159087D01*
X652135Y159025D01*
X652035Y158965D01*
X652031Y158960D01*
X652026Y158957D01*
X651951Y158867D01*
X651875Y158778D01*
X651873Y158772D01*
X651869Y158768D01*
X651827Y158660D01*
X651783Y158550D01*
X651782Y158543D01*
X651781Y158538D01*
X651780Y158520D01*
X651765Y158383D01*
X651765Y144366D01*
X649384Y141985D01*
X579849Y141985D01*
X579759Y141971D01*
X579668Y141963D01*
X579638Y141951D01*
X579606Y141946D01*
X579526Y141903D01*
X579442Y141867D01*
X579410Y141841D01*
X579389Y141830D01*
X579367Y141807D01*
X579311Y141762D01*
X493238Y55689D01*
X490411Y52862D01*
X474663Y37114D01*
X474621Y37056D01*
X474571Y37004D01*
X474549Y36957D01*
X474519Y36915D01*
X474498Y36846D01*
X474468Y36781D01*
X474462Y36729D01*
X474447Y36679D01*
X474449Y36608D01*
X474441Y36537D01*
X474452Y36486D01*
X474453Y36434D01*
X474478Y36366D01*
X474493Y36296D01*
X474520Y36252D01*
X474538Y36203D01*
X474582Y36147D01*
X474619Y36085D01*
X474659Y36051D01*
X474691Y36011D01*
X474752Y35972D01*
X474806Y35925D01*
X474854Y35906D01*
X474898Y35878D01*
X474968Y35860D01*
X475034Y35833D01*
X475106Y35825D01*
X475137Y35817D01*
X475160Y35819D01*
X475201Y35815D01*
X690151Y35815D01*
X690241Y35829D01*
X690332Y35837D01*
X690362Y35849D01*
X690394Y35854D01*
X690474Y35897D01*
X690558Y35933D01*
X690590Y35959D01*
X690611Y35970D01*
X690633Y35993D01*
X690689Y36038D01*
X816227Y161575D01*
X816239Y161592D01*
X816254Y161604D01*
X816310Y161691D01*
X816371Y161775D01*
X816376Y161794D01*
X816387Y161811D01*
X816412Y161911D01*
X816443Y162010D01*
X816442Y162030D01*
X816447Y162049D01*
X816439Y162152D01*
X816437Y162256D01*
X816430Y162275D01*
X816428Y162295D01*
X816388Y162390D01*
X816352Y162487D01*
X816340Y162503D01*
X816332Y162521D01*
X816227Y162652D01*
X815716Y163163D01*
X813959Y167404D01*
X813959Y171996D01*
X815716Y176237D01*
X818963Y179484D01*
X823204Y181241D01*
X827796Y181241D01*
X832037Y179484D01*
X835284Y176237D01*
X837041Y171996D01*
X837041Y167404D01*
X835284Y163163D01*
X832037Y159916D01*
X827796Y158159D01*
X824623Y158159D01*
X824533Y158145D01*
X824442Y158137D01*
X824412Y158125D01*
X824380Y158120D01*
X824300Y158077D01*
X824216Y158041D01*
X824184Y158015D01*
X824163Y158004D01*
X824141Y157981D01*
X824085Y157936D01*
X696438Y30289D01*
X693834Y27685D01*
X481076Y27685D01*
X481056Y27682D01*
X481037Y27684D01*
X480935Y27662D01*
X480833Y27646D01*
X480816Y27636D01*
X480796Y27632D01*
X480707Y27579D01*
X480616Y27530D01*
X480602Y27516D01*
X480585Y27506D01*
X480518Y27427D01*
X480446Y27352D01*
X480438Y27334D01*
X480425Y27319D01*
X480386Y27223D01*
X480343Y27129D01*
X480341Y27109D01*
X480333Y27091D01*
X480315Y26924D01*
X480315Y17366D01*
X465234Y2285D01*
X239616Y2285D01*
X237235Y4666D01*
X237235Y48801D01*
X237221Y48891D01*
X237213Y48982D01*
X237201Y49012D01*
X237196Y49044D01*
X237153Y49124D01*
X237117Y49208D01*
X237091Y49240D01*
X237080Y49261D01*
X237057Y49283D01*
X237012Y49339D01*
X226041Y60311D01*
X225945Y60379D01*
X225849Y60450D01*
X225845Y60452D01*
X225841Y60454D01*
X225728Y60489D01*
X225615Y60525D01*
X225610Y60525D01*
X225606Y60527D01*
X225487Y60524D01*
X225369Y60522D01*
X225365Y60520D01*
X225360Y60520D01*
X225247Y60479D01*
X225137Y60440D01*
X225133Y60438D01*
X225129Y60436D01*
X225036Y60361D01*
X224943Y60289D01*
X224941Y60285D01*
X224937Y60282D01*
X224873Y60182D01*
X224808Y60084D01*
X224807Y60079D01*
X224804Y60075D01*
X224775Y59961D01*
X224745Y59846D01*
X224745Y59841D01*
X224744Y59837D01*
X224753Y59720D01*
X224761Y59600D01*
X224763Y59595D01*
X224763Y59592D01*
X224769Y59578D01*
X224817Y59442D01*
X229327Y50077D01*
X231132Y38100D01*
X229327Y26123D01*
X224072Y15211D01*
X215834Y6332D01*
X205345Y277D01*
X199594Y-1036D01*
X199559Y-1050D01*
X199521Y-1057D01*
X199445Y-1096D01*
X199366Y-1129D01*
X199337Y-1154D01*
X199303Y-1172D01*
X199245Y-1234D01*
X199180Y-1289D01*
X199160Y-1322D01*
X199134Y-1350D01*
X199098Y-1427D01*
X199055Y-1501D01*
X199047Y-1538D01*
X199030Y-1573D01*
X199021Y-1658D01*
X199003Y-1741D01*
X199008Y-1779D01*
X199003Y-1817D01*
X199021Y-1901D01*
X199031Y-1986D01*
X199047Y-2020D01*
X199056Y-2058D01*
X199099Y-2131D01*
X199136Y-2208D01*
X199162Y-2236D01*
X199182Y-2269D01*
X199247Y-2324D01*
X199306Y-2386D01*
X199339Y-2404D01*
X199369Y-2429D01*
X199448Y-2461D01*
X199523Y-2500D01*
X199561Y-2506D01*
X199597Y-2521D01*
X199764Y-2539D01*
X938278Y-2539D01*
X938298Y-2536D01*
X938317Y-2538D01*
X938419Y-2516D01*
X938521Y-2500D01*
X938538Y-2490D01*
X938558Y-2486D01*
X938647Y-2433D01*
X938738Y-2384D01*
X938752Y-2370D01*
X938769Y-2360D01*
X938836Y-2281D01*
X938908Y-2206D01*
X938916Y-2188D01*
X938929Y-2173D01*
X938968Y-2077D01*
X939011Y-1983D01*
X939013Y-1963D01*
X939021Y-1945D01*
X939039Y-1778D01*
X939039Y7540D01*
X939024Y7636D01*
X939014Y7733D01*
X939004Y7757D01*
X939000Y7782D01*
X938954Y7868D01*
X938914Y7957D01*
X938897Y7977D01*
X938884Y8000D01*
X938814Y8067D01*
X938748Y8138D01*
X938725Y8151D01*
X938706Y8169D01*
X938618Y8210D01*
X938532Y8257D01*
X938507Y8262D01*
X938483Y8273D01*
X938386Y8283D01*
X938290Y8301D01*
X938264Y8297D01*
X938239Y8300D01*
X938143Y8279D01*
X938047Y8265D01*
X938024Y8253D01*
X937998Y8248D01*
X937915Y8198D01*
X937828Y8153D01*
X937809Y8135D01*
X937787Y8121D01*
X937724Y8047D01*
X937656Y7978D01*
X937640Y7949D01*
X937627Y7934D01*
X937615Y7904D01*
X937575Y7831D01*
X936884Y6163D01*
X933637Y2916D01*
X929396Y1159D01*
X924804Y1159D01*
X920563Y2916D01*
X917316Y6163D01*
X915559Y10404D01*
X915559Y14996D01*
X917316Y19237D01*
X920563Y22484D01*
X924804Y24241D01*
X929396Y24241D01*
X933637Y22484D01*
X936884Y19237D01*
X937575Y17569D01*
X937626Y17486D01*
X937672Y17400D01*
X937690Y17382D01*
X937704Y17360D01*
X937780Y17298D01*
X937850Y17231D01*
X937874Y17220D01*
X937894Y17203D01*
X937985Y17168D01*
X938073Y17127D01*
X938099Y17124D01*
X938123Y17115D01*
X938221Y17111D01*
X938317Y17100D01*
X938343Y17106D01*
X938369Y17105D01*
X938463Y17132D01*
X938558Y17152D01*
X938580Y17166D01*
X938605Y17173D01*
X938685Y17229D01*
X938769Y17279D01*
X938786Y17299D01*
X938807Y17313D01*
X938866Y17392D01*
X938929Y17466D01*
X938939Y17490D01*
X938954Y17511D01*
X938984Y17603D01*
X939021Y17694D01*
X939024Y17726D01*
X939030Y17745D01*
X939030Y17778D01*
X939039Y17860D01*
X939039Y164540D01*
X939024Y164636D01*
X939014Y164733D01*
X939004Y164757D01*
X939000Y164782D01*
X938954Y164868D01*
X938914Y164957D01*
X938897Y164977D01*
X938884Y165000D01*
X938814Y165067D01*
X938748Y165138D01*
X938725Y165151D01*
X938706Y165169D01*
X938618Y165210D01*
X938532Y165257D01*
X938507Y165262D01*
X938483Y165273D01*
X938386Y165283D01*
X938290Y165301D01*
X938264Y165297D01*
X938239Y165300D01*
X938143Y165279D01*
X938047Y165265D01*
X938024Y165253D01*
X937998Y165248D01*
X937915Y165198D01*
X937828Y165153D01*
X937809Y165135D01*
X937787Y165121D01*
X937724Y165047D01*
X937656Y164978D01*
X937640Y164949D01*
X937627Y164934D01*
X937615Y164904D01*
X937575Y164831D01*
X936884Y163163D01*
X933637Y159916D01*
X929396Y158159D01*
X924804Y158159D01*
X920563Y159916D01*
X917316Y163163D01*
X915559Y167404D01*
X915559Y171996D01*
X917316Y176237D01*
X920563Y179484D01*
X924804Y181241D01*
X929396Y181241D01*
X933637Y179484D01*
X936884Y176237D01*
X937575Y174569D01*
X937626Y174486D01*
X937672Y174400D01*
X937690Y174382D01*
X937704Y174360D01*
X937780Y174298D01*
X937850Y174231D01*
X937874Y174220D01*
X937894Y174203D01*
X937985Y174168D01*
X938073Y174127D01*
X938099Y174124D01*
X938123Y174115D01*
X938221Y174111D01*
X938317Y174100D01*
X938343Y174106D01*
X938369Y174105D01*
X938463Y174132D01*
X938558Y174152D01*
X938580Y174166D01*
X938605Y174173D01*
X938685Y174229D01*
X938769Y174279D01*
X938786Y174299D01*
X938807Y174313D01*
X938866Y174392D01*
X938929Y174466D01*
X938939Y174490D01*
X938954Y174511D01*
X938984Y174603D01*
X939021Y174694D01*
X939024Y174726D01*
X939030Y174745D01*
X939030Y174778D01*
X939039Y174860D01*
X939039Y331878D01*
X939036Y331898D01*
X939038Y331917D01*
X939016Y332019D01*
X939000Y332121D01*
X938990Y332138D01*
X938986Y332158D01*
X938933Y332247D01*
X938884Y332338D01*
X938870Y332352D01*
X938860Y332369D01*
X938781Y332436D01*
X938706Y332508D01*
X938688Y332516D01*
X938673Y332529D01*
X938577Y332568D01*
X938483Y332611D01*
X938463Y332613D01*
X938445Y332621D01*
X938278Y332639D01*
X898702Y332639D01*
X898664Y332633D01*
X898626Y332635D01*
X898543Y332613D01*
X898459Y332600D01*
X898425Y332582D01*
X898388Y332572D01*
X898317Y332524D01*
X898242Y332484D01*
X898215Y332457D01*
X898183Y332435D01*
X898131Y332368D01*
X898072Y332306D01*
X898056Y332271D01*
X898033Y332241D01*
X898005Y332160D01*
X897969Y332083D01*
X897964Y332045D01*
X897952Y332009D01*
X897951Y331923D01*
X897941Y331839D01*
X897950Y331801D01*
X897949Y331763D01*
X897976Y331682D01*
X897994Y331598D01*
X898013Y331565D01*
X898025Y331529D01*
X898076Y331460D01*
X898120Y331387D01*
X898149Y331362D01*
X898172Y331331D01*
X898242Y331283D01*
X898307Y331227D01*
X898342Y331213D01*
X898374Y331191D01*
X898532Y331136D01*
X898535Y331135D01*
X899536Y330907D01*
X902871Y330146D01*
X902871Y330145D01*
X902872Y330145D01*
X903845Y329923D01*
X914334Y323868D01*
X922572Y314989D01*
X927827Y304077D01*
X929632Y292100D01*
X927827Y280123D01*
X922572Y269211D01*
X914334Y260333D01*
X903845Y254277D01*
X892036Y251581D01*
X879958Y252487D01*
X868684Y256912D01*
X859215Y264463D01*
X852392Y274470D01*
X848822Y286044D01*
X848822Y298156D01*
X852392Y309730D01*
X852512Y309906D01*
X852512Y309907D01*
X854069Y312190D01*
X855107Y313713D01*
X856145Y315235D01*
X857702Y317519D01*
X858740Y319041D01*
X858741Y319042D01*
X859215Y319737D01*
X868684Y327288D01*
X878572Y331169D01*
X878662Y331223D01*
X878754Y331272D01*
X878767Y331285D01*
X878784Y331295D01*
X878852Y331374D01*
X878924Y331450D01*
X878932Y331467D01*
X878944Y331482D01*
X878983Y331578D01*
X879027Y331673D01*
X879030Y331692D01*
X879037Y331710D01*
X879043Y331814D01*
X879055Y331917D01*
X879050Y331936D01*
X879052Y331955D01*
X879024Y332056D01*
X879002Y332158D01*
X878992Y332174D01*
X878988Y332192D01*
X878930Y332279D01*
X878876Y332369D01*
X878862Y332381D01*
X878851Y332397D01*
X878769Y332461D01*
X878689Y332529D01*
X878671Y332536D01*
X878656Y332548D01*
X878558Y332582D01*
X878461Y332621D01*
X878438Y332623D01*
X878424Y332628D01*
X878392Y332628D01*
X878294Y332639D01*
X200202Y332639D01*
X200164Y332633D01*
X200126Y332635D01*
X200043Y332613D01*
X199959Y332600D01*
X199925Y332582D01*
X199888Y332572D01*
X199817Y332524D01*
X199742Y332484D01*
X199715Y332457D01*
X199683Y332435D01*
X199631Y332368D01*
X199572Y332306D01*
X199556Y332271D01*
X199533Y332241D01*
X199505Y332160D01*
X199469Y332083D01*
X199464Y332045D01*
X199452Y332009D01*
X199451Y331923D01*
X199441Y331839D01*
X199450Y331801D01*
X199449Y331763D01*
X199476Y331682D01*
X199494Y331598D01*
X199513Y331565D01*
X199525Y331529D01*
X199576Y331460D01*
X199620Y331387D01*
X199649Y331362D01*
X199672Y331331D01*
X199742Y331283D01*
X199807Y331227D01*
X199842Y331213D01*
X199874Y331191D01*
X200032Y331136D01*
X200035Y331135D01*
X201036Y330907D01*
X204371Y330146D01*
X204371Y330145D01*
X204372Y330145D01*
X205345Y329923D01*
X215834Y323867D01*
X224072Y314989D01*
X229327Y304077D01*
X231132Y292100D01*
X229327Y280123D01*
X224072Y269211D01*
X215834Y260333D01*
X205345Y254277D01*
X193536Y251581D01*
X181459Y252487D01*
X170184Y256912D01*
X160714Y264463D01*
X153892Y274470D01*
X150322Y286044D01*
X150322Y298156D01*
X153892Y309730D01*
X154012Y309906D01*
X154012Y309907D01*
X155569Y312190D01*
X156607Y313713D01*
X157645Y315235D01*
X159202Y317519D01*
X160240Y319041D01*
X160241Y319042D01*
X160715Y319737D01*
X170184Y327288D01*
X180072Y331169D01*
X180162Y331223D01*
X180254Y331272D01*
X180267Y331285D01*
X180284Y331295D01*
X180352Y331374D01*
X180424Y331450D01*
X180432Y331467D01*
X180444Y331482D01*
X180483Y331578D01*
X180527Y331673D01*
X180530Y331692D01*
X180537Y331710D01*
X180543Y331814D01*
X180555Y331917D01*
X180551Y331936D01*
X180552Y331955D01*
X180525Y332056D01*
X180502Y332158D01*
X180493Y332174D01*
X180488Y332192D01*
X180430Y332279D01*
X180376Y332369D01*
X180362Y332381D01*
X180351Y332397D01*
X180269Y332461D01*
X180189Y332529D01*
X180172Y332536D01*
X180157Y332548D01*
X180058Y332582D01*
X179961Y332621D01*
X179938Y332623D01*
X179924Y332628D01*
X179892Y332628D01*
X179794Y332639D01*
X10922Y332639D01*
X10902Y332636D01*
X10883Y332638D01*
X10781Y332616D01*
X10679Y332600D01*
X10662Y332590D01*
X10642Y332586D01*
X10553Y332533D01*
X10462Y332484D01*
X10448Y332470D01*
X10431Y332460D01*
X10364Y332381D01*
X10292Y332306D01*
X10284Y332288D01*
X10271Y332273D01*
X10232Y332177D01*
X10189Y332083D01*
X10187Y332063D01*
X10179Y332045D01*
X10161Y331878D01*
X10161Y-1778D01*
X10164Y-1798D01*
X10162Y-1817D01*
X10184Y-1919D01*
X10200Y-2021D01*
X10210Y-2038D01*
X10214Y-2058D01*
X10267Y-2147D01*
X10316Y-2238D01*
X10330Y-2252D01*
X10340Y-2269D01*
X10419Y-2336D01*
X10494Y-2408D01*
X10512Y-2416D01*
X10527Y-2429D01*
X10623Y-2468D01*
X10717Y-2511D01*
X10737Y-2513D01*
X10755Y-2521D01*
X10922Y-2539D01*
X180049Y-2539D01*
X180152Y-2522D01*
G37*
%LPC*%
G36*
X797804Y158159D02*
X797804Y158159D01*
X793563Y159916D01*
X790316Y163163D01*
X788559Y167404D01*
X788559Y171996D01*
X789901Y175236D01*
X789928Y175349D01*
X789957Y175463D01*
X789956Y175469D01*
X789958Y175475D01*
X789947Y175592D01*
X789937Y175708D01*
X789935Y175714D01*
X789934Y175720D01*
X789887Y175828D01*
X789841Y175934D01*
X789836Y175940D01*
X789834Y175945D01*
X789822Y175959D01*
X789736Y176065D01*
X773239Y192562D01*
X773165Y192615D01*
X773096Y192675D01*
X773066Y192687D01*
X773040Y192706D01*
X772953Y192733D01*
X772868Y192767D01*
X772827Y192771D01*
X772804Y192778D01*
X772772Y192777D01*
X772701Y192785D01*
X366616Y192785D01*
X364235Y195166D01*
X364235Y196890D01*
X364221Y196981D01*
X364213Y197071D01*
X364201Y197101D01*
X364196Y197133D01*
X364153Y197214D01*
X364117Y197298D01*
X364091Y197330D01*
X364080Y197351D01*
X364057Y197373D01*
X364044Y197389D01*
X364038Y197399D01*
X364031Y197405D01*
X364012Y197429D01*
X362270Y199171D01*
X361187Y201785D01*
X361187Y204249D01*
X361173Y204339D01*
X361165Y204430D01*
X361153Y204460D01*
X361148Y204492D01*
X361105Y204572D01*
X361069Y204656D01*
X361043Y204688D01*
X361032Y204709D01*
X361009Y204731D01*
X360964Y204787D01*
X284289Y281462D01*
X284215Y281515D01*
X284146Y281575D01*
X284116Y281587D01*
X284090Y281606D01*
X284003Y281633D01*
X283918Y281667D01*
X283877Y281671D01*
X283854Y281678D01*
X283822Y281677D01*
X283751Y281685D01*
X252476Y281685D01*
X252456Y281682D01*
X252437Y281684D01*
X252335Y281662D01*
X252233Y281646D01*
X252216Y281636D01*
X252196Y281632D01*
X252107Y281579D01*
X252016Y281530D01*
X252002Y281516D01*
X251985Y281506D01*
X251918Y281427D01*
X251846Y281352D01*
X251838Y281334D01*
X251825Y281319D01*
X251786Y281223D01*
X251743Y281129D01*
X251741Y281109D01*
X251733Y281091D01*
X251715Y280924D01*
X251715Y275102D01*
X251718Y275082D01*
X251716Y275063D01*
X251738Y274961D01*
X251754Y274859D01*
X251764Y274842D01*
X251768Y274822D01*
X251821Y274733D01*
X251870Y274642D01*
X251884Y274628D01*
X251894Y274611D01*
X251973Y274544D01*
X252048Y274472D01*
X252066Y274464D01*
X252081Y274451D01*
X252177Y274412D01*
X252271Y274369D01*
X252291Y274367D01*
X252309Y274359D01*
X252476Y274341D01*
X253898Y274341D01*
X257404Y272888D01*
X260088Y270204D01*
X261541Y266698D01*
X261541Y266629D01*
X261548Y266584D01*
X261546Y266538D01*
X261568Y266463D01*
X261580Y266386D01*
X261602Y266346D01*
X261615Y266302D01*
X261659Y266238D01*
X261696Y266169D01*
X261729Y266137D01*
X261755Y266100D01*
X261817Y266053D01*
X261874Y266000D01*
X261916Y265980D01*
X261952Y265953D01*
X262026Y265929D01*
X262097Y265896D01*
X262143Y265891D01*
X262186Y265877D01*
X262264Y265877D01*
X262341Y265869D01*
X262386Y265879D01*
X262432Y265879D01*
X262564Y265917D01*
X262582Y265921D01*
X262586Y265924D01*
X262593Y265926D01*
X264802Y266841D01*
X268598Y266841D01*
X270867Y265901D01*
X270911Y265890D01*
X270953Y265871D01*
X271030Y265863D01*
X271106Y265845D01*
X271152Y265849D01*
X271197Y265844D01*
X271274Y265861D01*
X271351Y265868D01*
X271393Y265886D01*
X271438Y265896D01*
X271505Y265936D01*
X271576Y265968D01*
X271610Y265999D01*
X271649Y266022D01*
X271699Y266081D01*
X271757Y266134D01*
X271779Y266174D01*
X271809Y266209D01*
X271838Y266282D01*
X271875Y266350D01*
X271884Y266395D01*
X271901Y266437D01*
X271916Y266573D01*
X271919Y266592D01*
X271918Y266597D01*
X271919Y266604D01*
X271919Y266686D01*
X273363Y270170D01*
X276030Y272837D01*
X279514Y274281D01*
X283286Y274281D01*
X286770Y272837D01*
X289437Y270170D01*
X290881Y266686D01*
X290881Y262914D01*
X289437Y259430D01*
X286770Y256763D01*
X283286Y255319D01*
X279514Y255319D01*
X277293Y256239D01*
X277249Y256250D01*
X277207Y256269D01*
X277130Y256278D01*
X277054Y256295D01*
X277008Y256291D01*
X276963Y256296D01*
X276886Y256280D01*
X276809Y256272D01*
X276767Y256254D01*
X276722Y256244D01*
X276655Y256204D01*
X276584Y256172D01*
X276550Y256141D01*
X276511Y256118D01*
X276460Y256059D01*
X276403Y256006D01*
X276381Y255966D01*
X276351Y255931D01*
X276322Y255859D01*
X276285Y255790D01*
X276277Y255746D01*
X276269Y255730D01*
X276268Y255725D01*
X276259Y255703D01*
X276244Y255567D01*
X276241Y255548D01*
X276242Y255543D01*
X276241Y255536D01*
X276241Y255402D01*
X274788Y251896D01*
X272104Y249212D01*
X271235Y248852D01*
X271135Y248790D01*
X271035Y248730D01*
X271031Y248725D01*
X271026Y248722D01*
X270951Y248631D01*
X270875Y248543D01*
X270873Y248537D01*
X270869Y248532D01*
X270827Y248424D01*
X270783Y248315D01*
X270782Y248307D01*
X270781Y248303D01*
X270780Y248285D01*
X270765Y248148D01*
X270765Y215860D01*
X270779Y215769D01*
X270787Y215679D01*
X270799Y215649D01*
X270804Y215617D01*
X270847Y215536D01*
X270883Y215452D01*
X270909Y215420D01*
X270920Y215399D01*
X270943Y215377D01*
X270988Y215321D01*
X272730Y213579D01*
X273813Y210965D01*
X273813Y208135D01*
X272730Y205521D01*
X270729Y203520D01*
X268115Y202437D01*
X265285Y202437D01*
X262671Y203520D01*
X260670Y205521D01*
X259587Y208135D01*
X259587Y210965D01*
X260670Y213579D01*
X262412Y215321D01*
X262465Y215395D01*
X262525Y215465D01*
X262537Y215495D01*
X262556Y215521D01*
X262583Y215608D01*
X262617Y215693D01*
X262621Y215734D01*
X262628Y215756D01*
X262627Y215788D01*
X262635Y215860D01*
X262635Y248148D01*
X262616Y248263D01*
X262599Y248379D01*
X262597Y248385D01*
X262596Y248391D01*
X262541Y248494D01*
X262488Y248598D01*
X262483Y248603D01*
X262480Y248608D01*
X262396Y248688D01*
X262312Y248771D01*
X262306Y248774D01*
X262302Y248778D01*
X262285Y248786D01*
X262165Y248852D01*
X261296Y249212D01*
X258612Y251896D01*
X257159Y255402D01*
X257159Y255471D01*
X257152Y255516D01*
X257154Y255562D01*
X257132Y255637D01*
X257120Y255714D01*
X257098Y255754D01*
X257085Y255798D01*
X257041Y255862D01*
X257004Y255931D01*
X256971Y255963D01*
X256945Y256000D01*
X256883Y256047D01*
X256826Y256100D01*
X256784Y256120D01*
X256748Y256147D01*
X256674Y256171D01*
X256603Y256204D01*
X256557Y256209D01*
X256514Y256223D01*
X256436Y256223D01*
X256359Y256231D01*
X256314Y256221D01*
X256268Y256221D01*
X256136Y256183D01*
X256118Y256179D01*
X256114Y256176D01*
X256107Y256174D01*
X253898Y255259D01*
X250102Y255259D01*
X246596Y256712D01*
X243912Y259396D01*
X242459Y262902D01*
X242459Y266698D01*
X243527Y269276D01*
X243542Y269340D01*
X243567Y269401D01*
X243576Y269484D01*
X243583Y269516D01*
X243582Y269535D01*
X243585Y269568D01*
X243585Y290101D01*
X243571Y290191D01*
X243563Y290282D01*
X243551Y290312D01*
X243546Y290344D01*
X243503Y290424D01*
X243467Y290508D01*
X243441Y290541D01*
X243430Y290561D01*
X243407Y290583D01*
X243362Y290639D01*
X242887Y291114D01*
X242813Y291168D01*
X242744Y291227D01*
X242714Y291239D01*
X242688Y291258D01*
X242601Y291285D01*
X242516Y291319D01*
X242475Y291323D01*
X242453Y291330D01*
X242420Y291329D01*
X242349Y291337D01*
X239885Y291337D01*
X237271Y292420D01*
X235270Y294421D01*
X234187Y297035D01*
X234187Y299865D01*
X235270Y302479D01*
X237271Y304480D01*
X239885Y305563D01*
X242715Y305563D01*
X245329Y304480D01*
X247330Y302479D01*
X248413Y299865D01*
X248413Y297401D01*
X248427Y297311D01*
X248435Y297220D01*
X248447Y297190D01*
X248452Y297158D01*
X248472Y297121D01*
X248474Y297113D01*
X248495Y297078D01*
X248531Y296994D01*
X248557Y296961D01*
X248568Y296941D01*
X248589Y296920D01*
X248600Y296902D01*
X248613Y296891D01*
X248636Y296863D01*
X249111Y296388D01*
X251715Y293784D01*
X251715Y290576D01*
X251718Y290556D01*
X251716Y290537D01*
X251738Y290435D01*
X251754Y290333D01*
X251764Y290316D01*
X251768Y290296D01*
X251821Y290207D01*
X251870Y290116D01*
X251884Y290102D01*
X251894Y290085D01*
X251973Y290018D01*
X252048Y289946D01*
X252066Y289938D01*
X252081Y289925D01*
X252177Y289886D01*
X252271Y289843D01*
X252291Y289841D01*
X252309Y289833D01*
X252476Y289815D01*
X287434Y289815D01*
X366713Y210536D01*
X366787Y210483D01*
X366856Y210423D01*
X366886Y210411D01*
X366912Y210392D01*
X366999Y210365D01*
X367084Y210331D01*
X367125Y210327D01*
X367148Y210320D01*
X367180Y210321D01*
X367251Y210313D01*
X369715Y210313D01*
X372329Y209230D01*
X374330Y207229D01*
X375413Y204615D01*
X375413Y201676D01*
X375416Y201656D01*
X375414Y201637D01*
X375436Y201535D01*
X375452Y201433D01*
X375462Y201416D01*
X375466Y201396D01*
X375519Y201307D01*
X375568Y201216D01*
X375582Y201202D01*
X375592Y201185D01*
X375671Y201118D01*
X375746Y201046D01*
X375764Y201038D01*
X375779Y201025D01*
X375875Y200986D01*
X375969Y200943D01*
X375989Y200941D01*
X376007Y200933D01*
X376174Y200915D01*
X776384Y200915D01*
X796210Y181089D01*
X796304Y181021D01*
X796398Y180951D01*
X796404Y180949D01*
X796409Y180945D01*
X796520Y180911D01*
X796632Y180875D01*
X796638Y180875D01*
X796644Y180873D01*
X796761Y180876D01*
X796878Y180877D01*
X796885Y180879D01*
X796890Y180879D01*
X796908Y180886D01*
X797039Y180924D01*
X797804Y181241D01*
X802396Y181241D01*
X806637Y179484D01*
X809884Y176237D01*
X811641Y171996D01*
X811641Y167404D01*
X809884Y163163D01*
X806637Y159916D01*
X802396Y158159D01*
X797804Y158159D01*
G37*
%LPD*%
%LPC*%
G36*
X879958Y49287D02*
X879958Y49287D01*
X868684Y53712D01*
X859215Y61263D01*
X852392Y71270D01*
X848822Y82844D01*
X848822Y94956D01*
X852392Y106530D01*
X852476Y106653D01*
X852995Y107414D01*
X853514Y108175D01*
X854033Y108936D01*
X854033Y108937D01*
X854552Y109698D01*
X855071Y110459D01*
X855590Y111220D01*
X856109Y111981D01*
X856109Y111982D01*
X856628Y112743D01*
X857147Y113504D01*
X857666Y114265D01*
X858185Y115026D01*
X858185Y115027D01*
X858704Y115788D01*
X859215Y116537D01*
X868684Y124088D01*
X879958Y128513D01*
X892036Y129419D01*
X893101Y129175D01*
X896436Y128414D01*
X896437Y128414D01*
X899772Y127653D01*
X903107Y126892D01*
X903845Y126723D01*
X914334Y120667D01*
X922572Y111789D01*
X927827Y100877D01*
X929632Y88900D01*
X927827Y76923D01*
X922572Y66011D01*
X914334Y57133D01*
X903845Y51077D01*
X892036Y48381D01*
X879958Y49287D01*
G37*
%LPD*%
%LPC*%
G36*
X275478Y52364D02*
X275478Y52364D01*
X267121Y55826D01*
X260726Y62221D01*
X257264Y70578D01*
X257264Y79622D01*
X260726Y87979D01*
X267121Y94374D01*
X274865Y97582D01*
X274965Y97644D01*
X275065Y97704D01*
X275069Y97708D01*
X275074Y97712D01*
X275149Y97802D01*
X275225Y97891D01*
X275227Y97896D01*
X275231Y97901D01*
X275273Y98010D01*
X275317Y98119D01*
X275318Y98126D01*
X275319Y98131D01*
X275320Y98149D01*
X275335Y98285D01*
X275335Y99601D01*
X275321Y99691D01*
X275313Y99782D01*
X275301Y99812D01*
X275296Y99844D01*
X275253Y99924D01*
X275217Y100008D01*
X275191Y100040D01*
X275180Y100061D01*
X275157Y100083D01*
X275112Y100139D01*
X258558Y116694D01*
X258463Y116762D01*
X258369Y116832D01*
X258363Y116834D01*
X258358Y116838D01*
X258247Y116872D01*
X258135Y116908D01*
X258129Y116908D01*
X258123Y116910D01*
X258006Y116907D01*
X257889Y116906D01*
X257882Y116904D01*
X257877Y116904D01*
X257860Y116897D01*
X257728Y116859D01*
X256147Y116204D01*
X251853Y116204D01*
X247885Y117848D01*
X244848Y120885D01*
X243204Y124853D01*
X243204Y129147D01*
X244848Y133115D01*
X247885Y136152D01*
X251853Y137796D01*
X256147Y137796D01*
X260115Y136152D01*
X263152Y133115D01*
X264796Y129147D01*
X264796Y124853D01*
X264141Y123272D01*
X264114Y123158D01*
X264086Y123045D01*
X264086Y123039D01*
X264085Y123033D01*
X264096Y122916D01*
X264105Y122800D01*
X264107Y122794D01*
X264108Y122788D01*
X264156Y122680D01*
X264201Y122573D01*
X264206Y122567D01*
X264208Y122563D01*
X264221Y122549D01*
X264306Y122442D01*
X280861Y105888D01*
X283465Y103284D01*
X283465Y98597D01*
X283468Y98577D01*
X283466Y98558D01*
X283488Y98456D01*
X283504Y98354D01*
X283514Y98337D01*
X283518Y98317D01*
X283571Y98228D01*
X283620Y98137D01*
X283634Y98123D01*
X283644Y98106D01*
X283723Y98039D01*
X283798Y97967D01*
X283816Y97959D01*
X283831Y97946D01*
X283927Y97907D01*
X284021Y97864D01*
X284041Y97862D01*
X284059Y97854D01*
X284226Y97836D01*
X284522Y97836D01*
X292879Y94374D01*
X299274Y87979D01*
X302736Y79622D01*
X302736Y70578D01*
X299274Y62221D01*
X292879Y55826D01*
X284522Y52364D01*
X275478Y52364D01*
G37*
%LPD*%
%LPC*%
G36*
X34178Y52364D02*
X34178Y52364D01*
X25821Y55826D01*
X19426Y62221D01*
X15964Y70578D01*
X15964Y79622D01*
X19426Y87979D01*
X25821Y94374D01*
X33565Y97582D01*
X33665Y97644D01*
X33765Y97704D01*
X33769Y97708D01*
X33774Y97712D01*
X33849Y97802D01*
X33925Y97891D01*
X33927Y97896D01*
X33931Y97901D01*
X33973Y98010D01*
X34017Y98119D01*
X34018Y98126D01*
X34019Y98131D01*
X34020Y98149D01*
X34035Y98285D01*
X34035Y112301D01*
X34021Y112391D01*
X34013Y112482D01*
X34001Y112512D01*
X33996Y112544D01*
X33953Y112624D01*
X33917Y112708D01*
X33891Y112740D01*
X33880Y112761D01*
X33857Y112783D01*
X33812Y112839D01*
X29958Y116694D01*
X29862Y116762D01*
X29769Y116832D01*
X29763Y116834D01*
X29758Y116838D01*
X29647Y116872D01*
X29535Y116908D01*
X29529Y116908D01*
X29523Y116910D01*
X29406Y116907D01*
X29289Y116906D01*
X29282Y116904D01*
X29277Y116904D01*
X29260Y116897D01*
X29128Y116859D01*
X27547Y116204D01*
X23253Y116204D01*
X19285Y117848D01*
X16248Y120885D01*
X14604Y124853D01*
X14604Y129147D01*
X16248Y133115D01*
X19285Y136152D01*
X23253Y137796D01*
X27547Y137796D01*
X31515Y136152D01*
X34552Y133115D01*
X36196Y129147D01*
X36196Y124853D01*
X35541Y123272D01*
X35514Y123158D01*
X35486Y123045D01*
X35486Y123039D01*
X35485Y123033D01*
X35496Y122916D01*
X35505Y122800D01*
X35507Y122794D01*
X35508Y122788D01*
X35556Y122680D01*
X35601Y122573D01*
X35606Y122567D01*
X35608Y122563D01*
X35620Y122549D01*
X35706Y122442D01*
X39561Y118588D01*
X42165Y115984D01*
X42165Y98597D01*
X42168Y98577D01*
X42166Y98558D01*
X42188Y98456D01*
X42204Y98354D01*
X42214Y98337D01*
X42218Y98317D01*
X42271Y98228D01*
X42320Y98137D01*
X42334Y98123D01*
X42344Y98106D01*
X42423Y98039D01*
X42498Y97967D01*
X42516Y97959D01*
X42531Y97946D01*
X42627Y97907D01*
X42721Y97864D01*
X42741Y97862D01*
X42759Y97854D01*
X42926Y97836D01*
X43222Y97836D01*
X51579Y94374D01*
X57974Y87979D01*
X61436Y79622D01*
X61436Y70578D01*
X57974Y62221D01*
X51579Y55826D01*
X43222Y52364D01*
X34178Y52364D01*
G37*
%LPD*%
%LPC*%
G36*
X510648Y1159D02*
X510648Y1159D01*
X509159Y2648D01*
X509159Y22752D01*
X510648Y24241D01*
X530752Y24241D01*
X532241Y22752D01*
X532241Y2648D01*
X530752Y1159D01*
X510648Y1159D01*
G37*
%LPD*%
%LPC*%
G36*
X414947Y203961D02*
X414947Y203961D01*
X410559Y205779D01*
X407201Y209137D01*
X405383Y213525D01*
X405383Y218275D01*
X407201Y222663D01*
X410559Y226021D01*
X414947Y227839D01*
X419697Y227839D01*
X424085Y226021D01*
X427443Y222663D01*
X429261Y218275D01*
X429261Y213525D01*
X427443Y209137D01*
X424085Y205779D01*
X419697Y203961D01*
X414947Y203961D01*
G37*
%LPD*%
%LPC*%
G36*
X414947Y51561D02*
X414947Y51561D01*
X410559Y53379D01*
X407201Y56737D01*
X405383Y61125D01*
X405383Y65875D01*
X407201Y70263D01*
X410559Y73621D01*
X414947Y75439D01*
X419697Y75439D01*
X424085Y73621D01*
X427443Y70263D01*
X429261Y65875D01*
X429261Y61125D01*
X427443Y56737D01*
X424085Y53379D01*
X419697Y51561D01*
X414947Y51561D01*
G37*
%LPD*%
%LPC*%
G36*
X670804Y158159D02*
X670804Y158159D01*
X666563Y159916D01*
X663316Y163163D01*
X661559Y167404D01*
X661559Y171996D01*
X663316Y176237D01*
X666563Y179484D01*
X670804Y181241D01*
X675396Y181241D01*
X679637Y179484D01*
X682884Y176237D01*
X684641Y171996D01*
X684641Y167404D01*
X682884Y163163D01*
X679637Y159916D01*
X675396Y158159D01*
X670804Y158159D01*
G37*
%LPD*%
%LPC*%
G36*
X899404Y158159D02*
X899404Y158159D01*
X895163Y159916D01*
X891916Y163163D01*
X890159Y167404D01*
X890159Y171996D01*
X891916Y176237D01*
X895163Y179484D01*
X899404Y181241D01*
X903996Y181241D01*
X908237Y179484D01*
X911484Y176237D01*
X913241Y171996D01*
X913241Y167404D01*
X911484Y163163D01*
X908237Y159916D01*
X903996Y158159D01*
X899404Y158159D01*
G37*
%LPD*%
%LPC*%
G36*
X874004Y158159D02*
X874004Y158159D01*
X869763Y159916D01*
X866516Y163163D01*
X864759Y167404D01*
X864759Y171996D01*
X866516Y176237D01*
X869763Y179484D01*
X874004Y181241D01*
X878596Y181241D01*
X882837Y179484D01*
X886084Y176237D01*
X887841Y171996D01*
X887841Y167404D01*
X886084Y163163D01*
X882837Y159916D01*
X878596Y158159D01*
X874004Y158159D01*
G37*
%LPD*%
%LPC*%
G36*
X848604Y158159D02*
X848604Y158159D01*
X844363Y159916D01*
X841116Y163163D01*
X839359Y167404D01*
X839359Y171996D01*
X841116Y176237D01*
X844363Y179484D01*
X848604Y181241D01*
X853196Y181241D01*
X857437Y179484D01*
X860684Y176237D01*
X862441Y171996D01*
X862441Y167404D01*
X860684Y163163D01*
X857437Y159916D01*
X853196Y158159D01*
X848604Y158159D01*
G37*
%LPD*%
%LPC*%
G36*
X772404Y158159D02*
X772404Y158159D01*
X768163Y159916D01*
X764916Y163163D01*
X763159Y167404D01*
X763159Y171996D01*
X764916Y176237D01*
X768163Y179484D01*
X772404Y181241D01*
X776996Y181241D01*
X781237Y179484D01*
X784484Y176237D01*
X786241Y171996D01*
X786241Y167404D01*
X784484Y163163D01*
X781237Y159916D01*
X776996Y158159D01*
X772404Y158159D01*
G37*
%LPD*%
%LPC*%
G36*
X747004Y158159D02*
X747004Y158159D01*
X742763Y159916D01*
X739516Y163163D01*
X737759Y167404D01*
X737759Y171996D01*
X739516Y176237D01*
X742763Y179484D01*
X747004Y181241D01*
X751596Y181241D01*
X755837Y179484D01*
X759084Y176237D01*
X760841Y171996D01*
X760841Y167404D01*
X759084Y163163D01*
X755837Y159916D01*
X751596Y158159D01*
X747004Y158159D01*
G37*
%LPD*%
%LPC*%
G36*
X696204Y158159D02*
X696204Y158159D01*
X691963Y159916D01*
X688716Y163163D01*
X686959Y167404D01*
X686959Y171996D01*
X688716Y176237D01*
X691963Y179484D01*
X696204Y181241D01*
X700796Y181241D01*
X705037Y179484D01*
X708284Y176237D01*
X710041Y171996D01*
X710041Y167404D01*
X708284Y163163D01*
X705037Y159916D01*
X700796Y158159D01*
X696204Y158159D01*
G37*
%LPD*%
%LPC*%
G36*
X620004Y158159D02*
X620004Y158159D01*
X615763Y159916D01*
X612516Y163163D01*
X610759Y167404D01*
X610759Y171996D01*
X612516Y176237D01*
X615763Y179484D01*
X620004Y181241D01*
X624596Y181241D01*
X628837Y179484D01*
X632084Y176237D01*
X633841Y171996D01*
X633841Y167404D01*
X632084Y163163D01*
X628837Y159916D01*
X624596Y158159D01*
X620004Y158159D01*
G37*
%LPD*%
%LPC*%
G36*
X569204Y158159D02*
X569204Y158159D01*
X564963Y159916D01*
X561716Y163163D01*
X559959Y167404D01*
X559959Y171996D01*
X561716Y176237D01*
X564963Y179484D01*
X569204Y181241D01*
X573796Y181241D01*
X578037Y179484D01*
X581284Y176237D01*
X583041Y171996D01*
X583041Y167404D01*
X581284Y163163D01*
X578037Y159916D01*
X573796Y158159D01*
X569204Y158159D01*
G37*
%LPD*%
%LPC*%
G36*
X543804Y158159D02*
X543804Y158159D01*
X539563Y159916D01*
X536316Y163163D01*
X534559Y167404D01*
X534559Y171996D01*
X536316Y176237D01*
X539563Y179484D01*
X543804Y181241D01*
X548396Y181241D01*
X552637Y179484D01*
X555884Y176237D01*
X557641Y171996D01*
X557641Y167404D01*
X555884Y163163D01*
X552637Y159916D01*
X548396Y158159D01*
X543804Y158159D01*
G37*
%LPD*%
%LPC*%
G36*
X518404Y158159D02*
X518404Y158159D01*
X514163Y159916D01*
X510916Y163163D01*
X509159Y167404D01*
X509159Y171996D01*
X510916Y176237D01*
X514163Y179484D01*
X518404Y181241D01*
X522996Y181241D01*
X527237Y179484D01*
X530484Y176237D01*
X532241Y171996D01*
X532241Y167404D01*
X530484Y163163D01*
X527237Y159916D01*
X522996Y158159D01*
X518404Y158159D01*
G37*
%LPD*%
%LPC*%
G36*
X721604Y158159D02*
X721604Y158159D01*
X717363Y159916D01*
X714116Y163163D01*
X712359Y167404D01*
X712359Y171996D01*
X714116Y176237D01*
X717363Y179484D01*
X721604Y181241D01*
X726196Y181241D01*
X730437Y179484D01*
X733684Y176237D01*
X735441Y171996D01*
X735441Y167404D01*
X733684Y163163D01*
X730437Y159916D01*
X726196Y158159D01*
X721604Y158159D01*
G37*
%LPD*%
%LPC*%
G36*
X670804Y1159D02*
X670804Y1159D01*
X666563Y2916D01*
X663316Y6163D01*
X661559Y10404D01*
X661559Y14996D01*
X663316Y19237D01*
X666563Y22484D01*
X670804Y24241D01*
X675396Y24241D01*
X679637Y22484D01*
X682884Y19237D01*
X684641Y14996D01*
X684641Y10404D01*
X682884Y6163D01*
X679637Y2916D01*
X675396Y1159D01*
X670804Y1159D01*
G37*
%LPD*%
%LPC*%
G36*
X696204Y1159D02*
X696204Y1159D01*
X691963Y2916D01*
X688716Y6163D01*
X686959Y10404D01*
X686959Y14996D01*
X688716Y19237D01*
X691963Y22484D01*
X696204Y24241D01*
X700796Y24241D01*
X705037Y22484D01*
X708284Y19237D01*
X710041Y14996D01*
X710041Y10404D01*
X708284Y6163D01*
X705037Y2916D01*
X700796Y1159D01*
X696204Y1159D01*
G37*
%LPD*%
%LPC*%
G36*
X721604Y1159D02*
X721604Y1159D01*
X717363Y2916D01*
X714116Y6163D01*
X712359Y10404D01*
X712359Y14996D01*
X714116Y19237D01*
X717363Y22484D01*
X721604Y24241D01*
X726196Y24241D01*
X730437Y22484D01*
X733684Y19237D01*
X735441Y14996D01*
X735441Y10404D01*
X733684Y6163D01*
X730437Y2916D01*
X726196Y1159D01*
X721604Y1159D01*
G37*
%LPD*%
%LPC*%
G36*
X747004Y1159D02*
X747004Y1159D01*
X742763Y2916D01*
X739516Y6163D01*
X737759Y10404D01*
X737759Y14996D01*
X739516Y19237D01*
X742763Y22484D01*
X747004Y24241D01*
X751596Y24241D01*
X755837Y22484D01*
X759084Y19237D01*
X760841Y14996D01*
X760841Y10404D01*
X759084Y6163D01*
X755837Y2916D01*
X751596Y1159D01*
X747004Y1159D01*
G37*
%LPD*%
%LPC*%
G36*
X772404Y1159D02*
X772404Y1159D01*
X768163Y2916D01*
X764916Y6163D01*
X763159Y10404D01*
X763159Y14996D01*
X764916Y19237D01*
X768163Y22484D01*
X772404Y24241D01*
X776996Y24241D01*
X781237Y22484D01*
X784484Y19237D01*
X786241Y14996D01*
X786241Y10404D01*
X784484Y6163D01*
X781237Y2916D01*
X776996Y1159D01*
X772404Y1159D01*
G37*
%LPD*%
%LPC*%
G36*
X899404Y1159D02*
X899404Y1159D01*
X895163Y2916D01*
X891916Y6163D01*
X890159Y10404D01*
X890159Y14996D01*
X891916Y19237D01*
X895163Y22484D01*
X899404Y24241D01*
X903996Y24241D01*
X908237Y22484D01*
X911484Y19237D01*
X913241Y14996D01*
X913241Y10404D01*
X911484Y6163D01*
X908237Y2916D01*
X903996Y1159D01*
X899404Y1159D01*
G37*
%LPD*%
%LPC*%
G36*
X874004Y1159D02*
X874004Y1159D01*
X869763Y2916D01*
X866516Y6163D01*
X864759Y10404D01*
X864759Y14996D01*
X866516Y19237D01*
X869763Y22484D01*
X874004Y24241D01*
X878596Y24241D01*
X882837Y22484D01*
X886084Y19237D01*
X887841Y14996D01*
X887841Y10404D01*
X886084Y6163D01*
X882837Y2916D01*
X878596Y1159D01*
X874004Y1159D01*
G37*
%LPD*%
%LPC*%
G36*
X620004Y1159D02*
X620004Y1159D01*
X615763Y2916D01*
X612516Y6163D01*
X610759Y10404D01*
X610759Y14996D01*
X612516Y19237D01*
X615763Y22484D01*
X620004Y24241D01*
X624596Y24241D01*
X628837Y22484D01*
X632084Y19237D01*
X633841Y14996D01*
X633841Y10404D01*
X632084Y6163D01*
X628837Y2916D01*
X624596Y1159D01*
X620004Y1159D01*
G37*
%LPD*%
%LPC*%
G36*
X594604Y1159D02*
X594604Y1159D01*
X590363Y2916D01*
X587116Y6163D01*
X585359Y10404D01*
X585359Y14996D01*
X587116Y19237D01*
X590363Y22484D01*
X594604Y24241D01*
X599196Y24241D01*
X603437Y22484D01*
X606684Y19237D01*
X608441Y14996D01*
X608441Y10404D01*
X606684Y6163D01*
X603437Y2916D01*
X599196Y1159D01*
X594604Y1159D01*
G37*
%LPD*%
%LPC*%
G36*
X569204Y1159D02*
X569204Y1159D01*
X564963Y2916D01*
X561716Y6163D01*
X559959Y10404D01*
X559959Y14996D01*
X561716Y19237D01*
X564963Y22484D01*
X569204Y24241D01*
X573796Y24241D01*
X578037Y22484D01*
X581284Y19237D01*
X583041Y14996D01*
X583041Y10404D01*
X581284Y6163D01*
X578037Y2916D01*
X573796Y1159D01*
X569204Y1159D01*
G37*
%LPD*%
%LPC*%
G36*
X848604Y1159D02*
X848604Y1159D01*
X844363Y2916D01*
X841116Y6163D01*
X839359Y10404D01*
X839359Y14996D01*
X841116Y19237D01*
X844363Y22484D01*
X848604Y24241D01*
X853196Y24241D01*
X857437Y22484D01*
X860684Y19237D01*
X862441Y14996D01*
X862441Y10404D01*
X860684Y6163D01*
X857437Y2916D01*
X853196Y1159D01*
X848604Y1159D01*
G37*
%LPD*%
%LPC*%
G36*
X543804Y1159D02*
X543804Y1159D01*
X539563Y2916D01*
X536316Y6163D01*
X534559Y10404D01*
X534559Y14996D01*
X536316Y19237D01*
X539563Y22484D01*
X543804Y24241D01*
X548396Y24241D01*
X552637Y22484D01*
X555884Y19237D01*
X557641Y14996D01*
X557641Y10404D01*
X555884Y6163D01*
X552637Y2916D01*
X548396Y1159D01*
X543804Y1159D01*
G37*
%LPD*%
%LPC*%
G36*
X797804Y1159D02*
X797804Y1159D01*
X793563Y2916D01*
X790316Y6163D01*
X788559Y10404D01*
X788559Y14996D01*
X790316Y19237D01*
X793563Y22484D01*
X797804Y24241D01*
X802396Y24241D01*
X806637Y22484D01*
X809884Y19237D01*
X811641Y14996D01*
X811641Y10404D01*
X809884Y6163D01*
X806637Y2916D01*
X802396Y1159D01*
X797804Y1159D01*
G37*
%LPD*%
%LPC*%
G36*
X823204Y1159D02*
X823204Y1159D01*
X818963Y2916D01*
X815716Y6163D01*
X813959Y10404D01*
X813959Y14996D01*
X815716Y19237D01*
X818963Y22484D01*
X823204Y24241D01*
X827796Y24241D01*
X832037Y22484D01*
X835284Y19237D01*
X837041Y14996D01*
X837041Y10404D01*
X835284Y6163D01*
X832037Y2916D01*
X827796Y1159D01*
X823204Y1159D01*
G37*
%LPD*%
%LPC*%
G36*
X251853Y141604D02*
X251853Y141604D01*
X247885Y143248D01*
X244848Y146285D01*
X243204Y150253D01*
X243204Y154547D01*
X244848Y158515D01*
X247885Y161552D01*
X251853Y163196D01*
X256147Y163196D01*
X260115Y161552D01*
X263152Y158515D01*
X264796Y154547D01*
X264796Y150253D01*
X263152Y146285D01*
X260115Y143248D01*
X256147Y141604D01*
X251853Y141604D01*
G37*
%LPD*%
%LPC*%
G36*
X23253Y141604D02*
X23253Y141604D01*
X19285Y143248D01*
X16248Y146285D01*
X14604Y150253D01*
X14604Y154547D01*
X16248Y158515D01*
X19285Y161552D01*
X23253Y163196D01*
X27547Y163196D01*
X31515Y161552D01*
X34552Y158515D01*
X36196Y154547D01*
X36196Y150253D01*
X34552Y146285D01*
X31515Y143248D01*
X27547Y141604D01*
X23253Y141604D01*
G37*
%LPD*%
%LPC*%
G36*
X404313Y13109D02*
X404313Y13109D01*
X400457Y14706D01*
X397506Y17657D01*
X395909Y21513D01*
X395909Y25687D01*
X397506Y29543D01*
X400457Y32494D01*
X404313Y34091D01*
X408487Y34091D01*
X412343Y32494D01*
X415294Y29543D01*
X416891Y25687D01*
X416891Y21513D01*
X415294Y17657D01*
X412343Y14706D01*
X408487Y13109D01*
X404313Y13109D01*
G37*
%LPD*%
%LPC*%
G36*
X115223Y76623D02*
X115223Y76623D01*
X115223Y97808D01*
X117514Y97550D01*
X119034Y97203D01*
X120004Y96982D01*
X122414Y96138D01*
X124715Y95030D01*
X126877Y93672D01*
X128874Y92079D01*
X130679Y90274D01*
X132272Y88277D01*
X133630Y86115D01*
X134738Y83814D01*
X135582Y81404D01*
X136150Y78914D01*
X136408Y76623D01*
X115223Y76623D01*
G37*
%LPD*%
%LPC*%
G36*
X356523Y76623D02*
X356523Y76623D01*
X356523Y97808D01*
X358814Y97550D01*
X360334Y97203D01*
X361304Y96982D01*
X363714Y96138D01*
X366015Y95030D01*
X368177Y93672D01*
X370174Y92079D01*
X371979Y90274D01*
X373572Y88277D01*
X374930Y86115D01*
X376038Y83814D01*
X376882Y81404D01*
X377450Y78914D01*
X377708Y76623D01*
X356523Y76623D01*
G37*
%LPD*%
%LPC*%
G36*
X319023Y39623D02*
X319023Y39623D01*
X319023Y60808D01*
X321314Y60550D01*
X323804Y59982D01*
X326214Y59138D01*
X328515Y58030D01*
X330677Y56672D01*
X332674Y55079D01*
X334479Y53274D01*
X336072Y51277D01*
X337430Y49115D01*
X338538Y46814D01*
X339382Y44404D01*
X339950Y41914D01*
X340208Y39623D01*
X319023Y39623D01*
G37*
%LPD*%
%LPC*%
G36*
X77723Y39623D02*
X77723Y39623D01*
X77723Y60808D01*
X80014Y60550D01*
X82504Y59982D01*
X84914Y59138D01*
X87215Y58030D01*
X89377Y56672D01*
X91374Y55079D01*
X93179Y53274D01*
X94772Y51277D01*
X96130Y49115D01*
X97238Y46814D01*
X98082Y44404D01*
X98650Y41914D01*
X98908Y39623D01*
X77723Y39623D01*
G37*
%LPD*%
%LPC*%
G36*
X115223Y73577D02*
X115223Y73577D01*
X136408Y73577D01*
X136150Y71286D01*
X135582Y68796D01*
X134738Y66386D01*
X133630Y64085D01*
X132272Y61923D01*
X130679Y59926D01*
X128874Y58121D01*
X126877Y56528D01*
X124715Y55170D01*
X122414Y54062D01*
X120004Y53218D01*
X117514Y52650D01*
X115223Y52392D01*
X115223Y73577D01*
G37*
%LPD*%
%LPC*%
G36*
X332292Y76623D02*
X332292Y76623D01*
X332550Y78914D01*
X333118Y81404D01*
X333962Y83814D01*
X335070Y86115D01*
X336428Y88277D01*
X338021Y90274D01*
X339826Y92079D01*
X341823Y93672D01*
X343985Y95030D01*
X346286Y96138D01*
X348696Y96982D01*
X351186Y97550D01*
X353477Y97808D01*
X353477Y76623D01*
X332292Y76623D01*
G37*
%LPD*%
%LPC*%
G36*
X90992Y76623D02*
X90992Y76623D01*
X91250Y78914D01*
X91818Y81404D01*
X92662Y83814D01*
X93770Y86115D01*
X95128Y88277D01*
X96721Y90274D01*
X98526Y92079D01*
X100523Y93672D01*
X102685Y95030D01*
X104986Y96138D01*
X107396Y96982D01*
X109886Y97550D01*
X112177Y97808D01*
X112177Y76623D01*
X90992Y76623D01*
G37*
%LPD*%
%LPC*%
G36*
X77723Y36577D02*
X77723Y36577D01*
X98908Y36577D01*
X98650Y34286D01*
X98082Y31796D01*
X97238Y29386D01*
X96130Y27085D01*
X94772Y24923D01*
X93179Y22926D01*
X91374Y21121D01*
X89377Y19528D01*
X87215Y18170D01*
X84914Y17062D01*
X82504Y16218D01*
X80014Y15650D01*
X77723Y15392D01*
X77723Y36577D01*
G37*
%LPD*%
%LPC*%
G36*
X319023Y36577D02*
X319023Y36577D01*
X340208Y36577D01*
X339950Y34286D01*
X339382Y31796D01*
X338538Y29386D01*
X337430Y27085D01*
X336072Y24923D01*
X334479Y22926D01*
X332674Y21121D01*
X330677Y19528D01*
X328515Y18170D01*
X326214Y17062D01*
X323804Y16218D01*
X321314Y15650D01*
X319023Y15392D01*
X319023Y36577D01*
G37*
%LPD*%
%LPC*%
G36*
X294792Y39623D02*
X294792Y39623D01*
X295050Y41914D01*
X295618Y44404D01*
X296462Y46814D01*
X297570Y49115D01*
X298928Y51277D01*
X300521Y53274D01*
X302326Y55079D01*
X304323Y56672D01*
X306485Y58030D01*
X308786Y59138D01*
X311196Y59982D01*
X313686Y60550D01*
X315977Y60808D01*
X315977Y39623D01*
X294792Y39623D01*
G37*
%LPD*%
%LPC*%
G36*
X356523Y73577D02*
X356523Y73577D01*
X377708Y73577D01*
X377450Y71286D01*
X376882Y68796D01*
X376038Y66386D01*
X374930Y64085D01*
X373572Y61923D01*
X371979Y59926D01*
X370174Y58121D01*
X368177Y56528D01*
X366015Y55170D01*
X363714Y54062D01*
X361304Y53218D01*
X358814Y52650D01*
X356523Y52392D01*
X356523Y73577D01*
G37*
%LPD*%
%LPC*%
G36*
X53492Y39623D02*
X53492Y39623D01*
X53750Y41914D01*
X54318Y44404D01*
X55162Y46814D01*
X56270Y49115D01*
X57628Y51277D01*
X59221Y53274D01*
X61026Y55079D01*
X63023Y56672D01*
X65185Y58030D01*
X67486Y59138D01*
X69896Y59982D01*
X72386Y60550D01*
X74677Y60808D01*
X74677Y39623D01*
X53492Y39623D01*
G37*
%LPD*%
%LPC*%
G36*
X351186Y52650D02*
X351186Y52650D01*
X349594Y53014D01*
X348696Y53218D01*
X346286Y54062D01*
X343985Y55170D01*
X341823Y56528D01*
X339826Y58121D01*
X338021Y59926D01*
X336428Y61923D01*
X335070Y64085D01*
X333962Y66386D01*
X333118Y68796D01*
X332550Y71286D01*
X332292Y73577D01*
X353477Y73577D01*
X353477Y52392D01*
X351186Y52650D01*
G37*
%LPD*%
%LPC*%
G36*
X109886Y52650D02*
X109886Y52650D01*
X108294Y53014D01*
X107396Y53218D01*
X104986Y54062D01*
X102685Y55170D01*
X100523Y56528D01*
X98526Y58121D01*
X96721Y59926D01*
X95128Y61923D01*
X93770Y64085D01*
X92662Y66386D01*
X91818Y68796D01*
X91250Y71286D01*
X90992Y73577D01*
X112177Y73577D01*
X112177Y52392D01*
X109886Y52650D01*
G37*
%LPD*%
%LPC*%
G36*
X72386Y15650D02*
X72386Y15650D01*
X72114Y15712D01*
X72113Y15712D01*
X69896Y16218D01*
X67486Y17062D01*
X65185Y18170D01*
X63023Y19528D01*
X61026Y21121D01*
X59221Y22926D01*
X57628Y24923D01*
X56270Y27085D01*
X55162Y29386D01*
X54318Y31796D01*
X53750Y34286D01*
X53492Y36577D01*
X74677Y36577D01*
X74677Y15392D01*
X72386Y15650D01*
G37*
%LPD*%
%LPC*%
G36*
X313686Y15650D02*
X313686Y15650D01*
X313414Y15712D01*
X313413Y15712D01*
X311196Y16218D01*
X308786Y17062D01*
X306485Y18170D01*
X304323Y19528D01*
X302326Y21121D01*
X300521Y22926D01*
X298928Y24923D01*
X297570Y27085D01*
X296462Y29386D01*
X295618Y31796D01*
X295050Y34286D01*
X294792Y36577D01*
X315977Y36577D01*
X315977Y15392D01*
X313686Y15650D01*
G37*
%LPD*%
%LPC*%
G36*
X447801Y217423D02*
X447801Y217423D01*
X447801Y227746D01*
X449074Y227545D01*
X450861Y226964D01*
X452535Y226111D01*
X454056Y225006D01*
X455384Y223678D01*
X456489Y222157D01*
X457342Y220483D01*
X457923Y218696D01*
X458124Y217423D01*
X447801Y217423D01*
G37*
%LPD*%
%LPC*%
G36*
X447801Y65023D02*
X447801Y65023D01*
X447801Y75346D01*
X449074Y75145D01*
X450861Y74564D01*
X452535Y73711D01*
X454056Y72606D01*
X455384Y71278D01*
X456489Y69757D01*
X457342Y68083D01*
X457923Y66296D01*
X458124Y65023D01*
X447801Y65023D01*
G37*
%LPD*%
%LPC*%
G36*
X434432Y217423D02*
X434432Y217423D01*
X434633Y218696D01*
X435214Y220483D01*
X436067Y222157D01*
X437172Y223678D01*
X438500Y225006D01*
X440021Y226111D01*
X441695Y226964D01*
X443482Y227545D01*
X444755Y227746D01*
X444755Y217423D01*
X434432Y217423D01*
G37*
%LPD*%
%LPC*%
G36*
X447801Y214377D02*
X447801Y214377D01*
X458124Y214377D01*
X457923Y213104D01*
X457342Y211317D01*
X456489Y209643D01*
X455384Y208122D01*
X454056Y206794D01*
X452535Y205689D01*
X450861Y204836D01*
X449074Y204255D01*
X447801Y204054D01*
X447801Y214377D01*
G37*
%LPD*%
%LPC*%
G36*
X447801Y61977D02*
X447801Y61977D01*
X458124Y61977D01*
X457923Y60704D01*
X457342Y58917D01*
X456489Y57243D01*
X455384Y55722D01*
X454056Y54394D01*
X452535Y53289D01*
X450861Y52436D01*
X449074Y51855D01*
X447801Y51654D01*
X447801Y61977D01*
G37*
%LPD*%
%LPC*%
G36*
X434432Y65023D02*
X434432Y65023D01*
X434633Y66296D01*
X435214Y68083D01*
X436067Y69757D01*
X437172Y71278D01*
X438500Y72606D01*
X440021Y73711D01*
X441695Y74564D01*
X443482Y75145D01*
X444755Y75346D01*
X444755Y65023D01*
X434432Y65023D01*
G37*
%LPD*%
%LPC*%
G36*
X443482Y204255D02*
X443482Y204255D01*
X441695Y204836D01*
X440021Y205689D01*
X438500Y206794D01*
X437172Y208122D01*
X436067Y209643D01*
X435214Y211317D01*
X434633Y213104D01*
X434432Y214377D01*
X444755Y214377D01*
X444755Y204054D01*
X443482Y204255D01*
G37*
%LPD*%
%LPC*%
G36*
X443482Y51855D02*
X443482Y51855D01*
X441695Y52436D01*
X440021Y53289D01*
X438500Y54394D01*
X437172Y55722D01*
X436067Y57243D01*
X435214Y58917D01*
X434633Y60704D01*
X434432Y61977D01*
X444755Y61977D01*
X444755Y51654D01*
X443482Y51855D01*
G37*
%LPD*%
%LPC*%
G36*
X649223Y14223D02*
X649223Y14223D01*
X649223Y24143D01*
X650402Y23957D01*
X652130Y23395D01*
X653749Y22571D01*
X655218Y21503D01*
X656503Y20218D01*
X657571Y18749D01*
X658395Y17130D01*
X658957Y15402D01*
X659143Y14223D01*
X649223Y14223D01*
G37*
%LPD*%
%LPC*%
G36*
X598423Y171223D02*
X598423Y171223D01*
X598423Y181143D01*
X599602Y180957D01*
X601330Y180395D01*
X602949Y179571D01*
X604418Y178503D01*
X605703Y177218D01*
X606771Y175749D01*
X607595Y174130D01*
X608157Y172402D01*
X608343Y171223D01*
X598423Y171223D01*
G37*
%LPD*%
%LPC*%
G36*
X636257Y14223D02*
X636257Y14223D01*
X636443Y15402D01*
X637005Y17130D01*
X637829Y18749D01*
X638897Y20218D01*
X640182Y21503D01*
X641651Y22571D01*
X643270Y23395D01*
X644998Y23957D01*
X646177Y24143D01*
X646177Y14223D01*
X636257Y14223D01*
G37*
%LPD*%
%LPC*%
G36*
X649223Y11177D02*
X649223Y11177D01*
X659143Y11177D01*
X658957Y9998D01*
X658395Y8270D01*
X657571Y6651D01*
X656503Y5182D01*
X655218Y3897D01*
X653749Y2829D01*
X652130Y2005D01*
X650402Y1443D01*
X649223Y1257D01*
X649223Y11177D01*
G37*
%LPD*%
%LPC*%
G36*
X598423Y168177D02*
X598423Y168177D01*
X608343Y168177D01*
X608157Y166998D01*
X607595Y165270D01*
X606771Y163651D01*
X605703Y162182D01*
X604418Y160897D01*
X602949Y159829D01*
X601330Y159005D01*
X599602Y158443D01*
X598423Y158257D01*
X598423Y168177D01*
G37*
%LPD*%
%LPC*%
G36*
X585457Y171223D02*
X585457Y171223D01*
X585643Y172402D01*
X586205Y174130D01*
X587029Y175749D01*
X588097Y177218D01*
X589382Y178503D01*
X590851Y179571D01*
X592470Y180395D01*
X594198Y180957D01*
X595377Y181143D01*
X595377Y171223D01*
X585457Y171223D01*
G37*
%LPD*%
%LPC*%
G36*
X644998Y1443D02*
X644998Y1443D01*
X643270Y2005D01*
X641651Y2829D01*
X640182Y3897D01*
X638897Y5182D01*
X637829Y6651D01*
X637005Y8270D01*
X636443Y9998D01*
X636257Y11177D01*
X646177Y11177D01*
X646177Y1257D01*
X644998Y1443D01*
G37*
%LPD*%
%LPC*%
G36*
X594198Y158443D02*
X594198Y158443D01*
X592470Y159005D01*
X590851Y159829D01*
X589382Y160897D01*
X588097Y162182D01*
X587029Y163651D01*
X586205Y165270D01*
X585643Y166998D01*
X585457Y168177D01*
X595377Y168177D01*
X595377Y158257D01*
X594198Y158443D01*
G37*
%LPD*%
%LPC*%
G36*
X433323Y25123D02*
X433323Y25123D01*
X433323Y33980D01*
X434257Y33832D01*
X435827Y33322D01*
X437298Y32572D01*
X438634Y31602D01*
X439802Y30434D01*
X440772Y29098D01*
X441522Y27627D01*
X442032Y26057D01*
X442180Y25123D01*
X433323Y25123D01*
G37*
%LPD*%
%LPC*%
G36*
X433323Y22077D02*
X433323Y22077D01*
X442180Y22077D01*
X442032Y21143D01*
X441522Y19573D01*
X440772Y18102D01*
X439802Y16766D01*
X438634Y15598D01*
X437298Y14628D01*
X435827Y13878D01*
X434257Y13368D01*
X433323Y13220D01*
X433323Y22077D01*
G37*
%LPD*%
%LPC*%
G36*
X421420Y25123D02*
X421420Y25123D01*
X421568Y26057D01*
X422078Y27627D01*
X422828Y29098D01*
X423798Y30434D01*
X424966Y31602D01*
X426302Y32572D01*
X427773Y33322D01*
X429343Y33832D01*
X430277Y33980D01*
X430277Y25123D01*
X421420Y25123D01*
G37*
%LPD*%
%LPC*%
G36*
X429343Y13368D02*
X429343Y13368D01*
X427773Y13878D01*
X426302Y14628D01*
X424966Y15598D01*
X423798Y16766D01*
X422828Y18102D01*
X422078Y19573D01*
X421568Y21143D01*
X421420Y22077D01*
X430277Y22077D01*
X430277Y13220D01*
X429343Y13368D01*
G37*
%LPD*%
%LPC*%
G36*
X446277Y215899D02*
X446277Y215899D01*
X446277Y215901D01*
X446279Y215901D01*
X446279Y215899D01*
X446277Y215899D01*
G37*
%LPD*%
%LPC*%
G36*
X317499Y38099D02*
X317499Y38099D01*
X317499Y38101D01*
X317501Y38101D01*
X317501Y38099D01*
X317499Y38099D01*
G37*
%LPD*%
%LPC*%
G36*
X446277Y63499D02*
X446277Y63499D01*
X446277Y63501D01*
X446279Y63501D01*
X446279Y63499D01*
X446277Y63499D01*
G37*
%LPD*%
%LPC*%
G36*
X431799Y23599D02*
X431799Y23599D01*
X431799Y23601D01*
X431801Y23601D01*
X431801Y23599D01*
X431799Y23599D01*
G37*
%LPD*%
%LPC*%
G36*
X354999Y75099D02*
X354999Y75099D01*
X354999Y75101D01*
X355001Y75101D01*
X355001Y75099D01*
X354999Y75099D01*
G37*
%LPD*%
%LPC*%
G36*
X113699Y75099D02*
X113699Y75099D01*
X113699Y75101D01*
X113701Y75101D01*
X113701Y75099D01*
X113699Y75099D01*
G37*
%LPD*%
%LPC*%
G36*
X647699Y12699D02*
X647699Y12699D01*
X647699Y12701D01*
X647701Y12701D01*
X647701Y12699D01*
X647699Y12699D01*
G37*
%LPD*%
%LPC*%
G36*
X76199Y38099D02*
X76199Y38099D01*
X76199Y38101D01*
X76201Y38101D01*
X76201Y38099D01*
X76199Y38099D01*
G37*
%LPD*%
%LPC*%
G36*
X596899Y169699D02*
X596899Y169699D01*
X596899Y169701D01*
X596901Y169701D01*
X596901Y169699D01*
X596899Y169699D01*
G37*
%LPD*%
D10*
X25400Y152400D03*
X25400Y127000D03*
X254000Y152400D03*
X254000Y127000D03*
D11*
X520700Y12700D03*
D12*
X546100Y12700D03*
X571500Y12700D03*
X596900Y12700D03*
X622300Y12700D03*
X647700Y12700D03*
X673100Y12700D03*
X698500Y12700D03*
X723900Y12700D03*
X749300Y12700D03*
X774700Y12700D03*
X800100Y12700D03*
X825500Y12700D03*
X850900Y12700D03*
X876300Y12700D03*
X901700Y12700D03*
X927100Y12700D03*
X927100Y169700D03*
X901700Y169700D03*
X876300Y169700D03*
X850900Y169700D03*
X825500Y169700D03*
X800100Y169700D03*
X774700Y169700D03*
X749300Y169700D03*
X723900Y169700D03*
X698500Y169700D03*
X673100Y169700D03*
X647700Y169700D03*
X622300Y169700D03*
X596900Y169700D03*
X571500Y169700D03*
X546100Y169700D03*
X520700Y169700D03*
D13*
X406400Y23600D03*
X431800Y23600D03*
X457200Y23600D03*
D14*
X76200Y38100D03*
X38700Y75100D03*
X113700Y75100D03*
D15*
X417322Y215900D03*
X446278Y215900D03*
X417322Y63500D03*
X446278Y63500D03*
D14*
X317500Y38100D03*
X280000Y75100D03*
X355000Y75100D03*
D16*
X65500Y264800D03*
D17*
X50800Y257300D03*
X36100Y264800D03*
D16*
X281400Y264800D03*
D17*
X266700Y257300D03*
X252000Y264800D03*
D18*
X63500Y228600D02*
X25400Y228600D01*
X25400Y254000D01*
X31750Y260350D01*
X36100Y264800D01*
X692150Y31750D02*
X825500Y165100D01*
X692150Y31750D02*
X476250Y31750D01*
X476250Y19050D01*
X463550Y6350D01*
X241300Y6350D01*
X241300Y50800D01*
X63500Y228600D01*
X825500Y169700D02*
X825500Y165100D01*
D19*
X63500Y228600D03*
D18*
X25400Y127000D02*
X38100Y114300D01*
X38100Y76200D01*
X38700Y75100D01*
X247650Y292100D02*
X241300Y298450D01*
X247650Y285750D02*
X247650Y266700D01*
X247650Y285750D02*
X247650Y292100D01*
X247650Y266700D02*
X252000Y264800D01*
X285750Y285750D02*
X368300Y203200D01*
X285750Y285750D02*
X247650Y285750D01*
X774700Y196850D02*
X800100Y171450D01*
X774700Y196850D02*
X368300Y196850D01*
X368300Y203200D01*
X800100Y171450D02*
X800100Y169700D01*
D19*
X241300Y298450D03*
X368300Y203200D03*
D18*
X266700Y209550D02*
X266700Y257300D01*
D19*
X266700Y209550D03*
D18*
X254000Y127000D02*
X279400Y101600D01*
X279400Y76200D01*
X280000Y75100D01*
X488950Y57150D02*
X577850Y146050D01*
X488950Y57150D02*
X457200Y25400D01*
X577850Y146050D02*
X647700Y146050D01*
X647700Y169700D01*
X457200Y25400D02*
X457200Y23600D01*
X488950Y57150D02*
X361950Y184150D01*
D19*
X361950Y184150D03*
M02*
