G04 EAGLE Gerber RS-274X export*
G75*
%MOMM*%
%FSLAX34Y34*%
%LPD*%
%IN*%
%IPPOS*%
%AMOC8*
5,1,8,0,0,1.08239X$1,22.5*%
G01*
%ADD10C,0.254000*%


D10*
X0Y-12700D02*
X949200Y-12700D01*
X949200Y342800D01*
X0Y342800D01*
X0Y-12700D01*
X905000Y88376D02*
X904932Y87331D01*
X904795Y86292D01*
X904590Y85265D01*
X904319Y84253D01*
X903983Y83261D01*
X903582Y82293D01*
X903118Y81354D01*
X902595Y80446D01*
X902013Y79575D01*
X901375Y78744D01*
X900684Y77957D01*
X899943Y77216D01*
X899156Y76525D01*
X898325Y75888D01*
X897454Y75306D01*
X896546Y74782D01*
X895607Y74318D01*
X894639Y73917D01*
X893647Y73581D01*
X892635Y73310D01*
X891608Y73105D01*
X890569Y72969D01*
X889524Y72900D01*
X888476Y72900D01*
X887431Y72969D01*
X886392Y73105D01*
X885365Y73310D01*
X884353Y73581D01*
X883361Y73917D01*
X882393Y74318D01*
X881454Y74782D01*
X880546Y75306D01*
X879675Y75888D01*
X878844Y76525D01*
X878057Y77216D01*
X877316Y77957D01*
X876625Y78744D01*
X875988Y79575D01*
X875406Y80446D01*
X874882Y81354D01*
X874418Y82293D01*
X874017Y83261D01*
X873681Y84253D01*
X873410Y85265D01*
X873205Y86292D01*
X873069Y87331D01*
X873000Y88376D01*
X873000Y89424D01*
X873069Y90469D01*
X873205Y91508D01*
X873410Y92535D01*
X873681Y93547D01*
X874017Y94539D01*
X874418Y95507D01*
X874882Y96446D01*
X875406Y97354D01*
X875988Y98225D01*
X876625Y99056D01*
X877316Y99843D01*
X878057Y100584D01*
X878844Y101275D01*
X879675Y101913D01*
X880546Y102495D01*
X881454Y103018D01*
X882393Y103482D01*
X883361Y103883D01*
X884353Y104219D01*
X885365Y104490D01*
X886392Y104695D01*
X887431Y104832D01*
X888476Y104900D01*
X889524Y104900D01*
X890569Y104832D01*
X891608Y104695D01*
X892635Y104490D01*
X893647Y104219D01*
X894639Y103883D01*
X895607Y103482D01*
X896546Y103018D01*
X897454Y102495D01*
X898325Y101913D01*
X899156Y101275D01*
X899943Y100584D01*
X900684Y99843D01*
X901375Y99056D01*
X902013Y98225D01*
X902595Y97354D01*
X903118Y96446D01*
X903582Y95507D01*
X903983Y94539D01*
X904319Y93547D01*
X904590Y92535D01*
X904795Y91508D01*
X904932Y90469D01*
X905000Y89424D01*
X905000Y88376D01*
X206500Y37576D02*
X206432Y36531D01*
X206295Y35492D01*
X206090Y34465D01*
X205819Y33453D01*
X205483Y32461D01*
X205082Y31493D01*
X204618Y30554D01*
X204095Y29646D01*
X203513Y28775D01*
X202875Y27944D01*
X202184Y27157D01*
X201443Y26416D01*
X200656Y25725D01*
X199825Y25088D01*
X198954Y24506D01*
X198046Y23982D01*
X197107Y23518D01*
X196139Y23117D01*
X195147Y22781D01*
X194135Y22510D01*
X193108Y22305D01*
X192069Y22169D01*
X191024Y22100D01*
X189976Y22100D01*
X188931Y22169D01*
X187892Y22305D01*
X186865Y22510D01*
X185853Y22781D01*
X184861Y23117D01*
X183893Y23518D01*
X182954Y23982D01*
X182046Y24506D01*
X181175Y25088D01*
X180344Y25725D01*
X179557Y26416D01*
X178816Y27157D01*
X178125Y27944D01*
X177488Y28775D01*
X176906Y29646D01*
X176382Y30554D01*
X175918Y31493D01*
X175517Y32461D01*
X175181Y33453D01*
X174910Y34465D01*
X174705Y35492D01*
X174569Y36531D01*
X174500Y37576D01*
X174500Y38624D01*
X174569Y39669D01*
X174705Y40708D01*
X174910Y41735D01*
X175181Y42747D01*
X175517Y43739D01*
X175918Y44707D01*
X176382Y45646D01*
X176906Y46554D01*
X177488Y47425D01*
X178125Y48256D01*
X178816Y49043D01*
X179557Y49784D01*
X180344Y50475D01*
X181175Y51113D01*
X182046Y51695D01*
X182954Y52218D01*
X183893Y52682D01*
X184861Y53083D01*
X185853Y53419D01*
X186865Y53690D01*
X187892Y53895D01*
X188931Y54032D01*
X189976Y54100D01*
X191024Y54100D01*
X192069Y54032D01*
X193108Y53895D01*
X194135Y53690D01*
X195147Y53419D01*
X196139Y53083D01*
X197107Y52682D01*
X198046Y52218D01*
X198954Y51695D01*
X199825Y51113D01*
X200656Y50475D01*
X201443Y49784D01*
X202184Y49043D01*
X202875Y48256D01*
X203513Y47425D01*
X204095Y46554D01*
X204618Y45646D01*
X205082Y44707D01*
X205483Y43739D01*
X205819Y42747D01*
X206090Y41735D01*
X206295Y40708D01*
X206432Y39669D01*
X206500Y38624D01*
X206500Y37576D01*
X206500Y291576D02*
X206432Y290531D01*
X206295Y289492D01*
X206090Y288465D01*
X205819Y287453D01*
X205483Y286461D01*
X205082Y285493D01*
X204618Y284554D01*
X204095Y283646D01*
X203513Y282775D01*
X202875Y281944D01*
X202184Y281157D01*
X201443Y280416D01*
X200656Y279725D01*
X199825Y279088D01*
X198954Y278506D01*
X198046Y277982D01*
X197107Y277518D01*
X196139Y277117D01*
X195147Y276781D01*
X194135Y276510D01*
X193108Y276305D01*
X192069Y276169D01*
X191024Y276100D01*
X189976Y276100D01*
X188931Y276169D01*
X187892Y276305D01*
X186865Y276510D01*
X185853Y276781D01*
X184861Y277117D01*
X183893Y277518D01*
X182954Y277982D01*
X182046Y278506D01*
X181175Y279088D01*
X180344Y279725D01*
X179557Y280416D01*
X178816Y281157D01*
X178125Y281944D01*
X177488Y282775D01*
X176906Y283646D01*
X176382Y284554D01*
X175918Y285493D01*
X175517Y286461D01*
X175181Y287453D01*
X174910Y288465D01*
X174705Y289492D01*
X174569Y290531D01*
X174500Y291576D01*
X174500Y292624D01*
X174569Y293669D01*
X174705Y294708D01*
X174910Y295735D01*
X175181Y296747D01*
X175517Y297739D01*
X175918Y298707D01*
X176382Y299646D01*
X176906Y300554D01*
X177488Y301425D01*
X178125Y302256D01*
X178816Y303043D01*
X179557Y303784D01*
X180344Y304475D01*
X181175Y305113D01*
X182046Y305695D01*
X182954Y306218D01*
X183893Y306682D01*
X184861Y307083D01*
X185853Y307419D01*
X186865Y307690D01*
X187892Y307895D01*
X188931Y308032D01*
X189976Y308100D01*
X191024Y308100D01*
X192069Y308032D01*
X193108Y307895D01*
X194135Y307690D01*
X195147Y307419D01*
X196139Y307083D01*
X197107Y306682D01*
X198046Y306218D01*
X198954Y305695D01*
X199825Y305113D01*
X200656Y304475D01*
X201443Y303784D01*
X202184Y303043D01*
X202875Y302256D01*
X203513Y301425D01*
X204095Y300554D01*
X204618Y299646D01*
X205082Y298707D01*
X205483Y297739D01*
X205819Y296747D01*
X206090Y295735D01*
X206295Y294708D01*
X206432Y293669D01*
X206500Y292624D01*
X206500Y291576D01*
X905000Y291576D02*
X904932Y290531D01*
X904795Y289492D01*
X904590Y288465D01*
X904319Y287453D01*
X903983Y286461D01*
X903582Y285493D01*
X903118Y284554D01*
X902595Y283646D01*
X902013Y282775D01*
X901375Y281944D01*
X900684Y281157D01*
X899943Y280416D01*
X899156Y279725D01*
X898325Y279088D01*
X897454Y278506D01*
X896546Y277982D01*
X895607Y277518D01*
X894639Y277117D01*
X893647Y276781D01*
X892635Y276510D01*
X891608Y276305D01*
X890569Y276169D01*
X889524Y276100D01*
X888476Y276100D01*
X887431Y276169D01*
X886392Y276305D01*
X885365Y276510D01*
X884353Y276781D01*
X883361Y277117D01*
X882393Y277518D01*
X881454Y277982D01*
X880546Y278506D01*
X879675Y279088D01*
X878844Y279725D01*
X878057Y280416D01*
X877316Y281157D01*
X876625Y281944D01*
X875988Y282775D01*
X875406Y283646D01*
X874882Y284554D01*
X874418Y285493D01*
X874017Y286461D01*
X873681Y287453D01*
X873410Y288465D01*
X873205Y289492D01*
X873069Y290531D01*
X873000Y291576D01*
X873000Y292624D01*
X873069Y293669D01*
X873205Y294708D01*
X873410Y295735D01*
X873681Y296747D01*
X874017Y297739D01*
X874418Y298707D01*
X874882Y299646D01*
X875406Y300554D01*
X875988Y301425D01*
X876625Y302256D01*
X877316Y303043D01*
X878057Y303784D01*
X878844Y304475D01*
X879675Y305113D01*
X880546Y305695D01*
X881454Y306218D01*
X882393Y306682D01*
X883361Y307083D01*
X884353Y307419D01*
X885365Y307690D01*
X886392Y307895D01*
X887431Y308032D01*
X888476Y308100D01*
X889524Y308100D01*
X890569Y308032D01*
X891608Y307895D01*
X892635Y307690D01*
X893647Y307419D01*
X894639Y307083D01*
X895607Y306682D01*
X896546Y306218D01*
X897454Y305695D01*
X898325Y305113D01*
X899156Y304475D01*
X899943Y303784D01*
X900684Y303043D01*
X901375Y302256D01*
X902013Y301425D01*
X902595Y300554D01*
X903118Y299646D01*
X903582Y298707D01*
X903983Y297739D01*
X904319Y296747D01*
X904590Y295735D01*
X904795Y294708D01*
X904932Y293669D01*
X905000Y292624D01*
X905000Y291576D01*
M02*
