G04 EAGLE Gerber RS-274X export*
G75*
%MOMM*%
%FSLAX34Y34*%
%LPD*%
%INSoldermask Top*%
%IPPOS*%
%AMOC8*
5,1,8,0,0,1.08239X$1,22.5*%
G01*
%ADD10R,2.453200X1.953200*%
%ADD11R,1.953200X2.453200*%
%ADD12C,1.854200*%
%ADD13R,1.403200X1.603200*%
%ADD14R,2.012800X2.012800*%
%ADD15C,2.012800*%
%ADD16C,1.872800*%
%ADD17C,4.242200*%
%ADD18C,2.082800*%
%ADD19C,1.692800*%
%ADD20R,1.253200X2.003200*%
%ADD21R,2.003200X1.253200*%
%ADD22C,3.403200*%
%ADD23C,1.117600*%


D10*
X63500Y154700D03*
X63500Y124700D03*
D11*
X99300Y266700D03*
X129300Y266700D03*
D12*
X25400Y152400D03*
X25400Y127000D03*
D10*
X292100Y154700D03*
X292100Y124700D03*
D11*
X315200Y266700D03*
X345200Y266700D03*
D12*
X254000Y152400D03*
X254000Y127000D03*
D13*
X23100Y317500D03*
X53100Y317500D03*
X239000Y317500D03*
X269000Y317500D03*
D14*
X520700Y12700D03*
D15*
X546100Y12700D03*
X571500Y12700D03*
X596900Y12700D03*
X622300Y12700D03*
X647700Y12700D03*
X673100Y12700D03*
X698500Y12700D03*
X723900Y12700D03*
X749300Y12700D03*
X774700Y12700D03*
X800100Y12700D03*
X825500Y12700D03*
X850900Y12700D03*
X876300Y12700D03*
X901700Y12700D03*
X927100Y12700D03*
X927100Y169700D03*
X901700Y169700D03*
X876300Y169700D03*
X850900Y169700D03*
X825500Y169700D03*
X800100Y169700D03*
X774700Y169700D03*
X749300Y169700D03*
X723900Y169700D03*
X698500Y169700D03*
X673100Y169700D03*
X647700Y169700D03*
X622300Y169700D03*
X596900Y169700D03*
X571500Y169700D03*
X546100Y169700D03*
X520700Y169700D03*
D16*
X406400Y23600D03*
X431800Y23600D03*
X457200Y23600D03*
D17*
X76200Y38100D03*
X38700Y75100D03*
X113700Y75100D03*
D18*
X417322Y215900D03*
X446278Y215900D03*
X417322Y63500D03*
X446278Y63500D03*
D17*
X317500Y38100D03*
X280000Y75100D03*
X355000Y75100D03*
D13*
X459500Y139700D03*
X429500Y139700D03*
D19*
X65500Y264800D03*
X50800Y257300D03*
X36100Y264800D03*
X281400Y264800D03*
X266700Y257300D03*
X252000Y264800D03*
D20*
X124700Y203200D03*
X154700Y203200D03*
X302500Y203200D03*
X332500Y203200D03*
X281700Y203200D03*
X251700Y203200D03*
D21*
X330200Y124700D03*
X330200Y154700D03*
D20*
X416800Y177800D03*
X446800Y177800D03*
X416800Y101600D03*
X446800Y101600D03*
D21*
X368300Y124700D03*
X368300Y154700D03*
D20*
X99300Y304800D03*
X129300Y304800D03*
X73900Y203200D03*
X103900Y203200D03*
X53100Y203200D03*
X23100Y203200D03*
D21*
X101600Y124700D03*
X101600Y154700D03*
X127000Y124700D03*
X127000Y154700D03*
D20*
X434100Y279400D03*
X404100Y279400D03*
X383300Y203200D03*
X353300Y203200D03*
X315200Y304800D03*
X345200Y304800D03*
D22*
X889000Y88900D03*
X190500Y38100D03*
X190500Y292100D03*
X889000Y292100D03*
D23*
X63500Y228600D03*
X241300Y298450D03*
X368300Y203200D03*
X266700Y209550D03*
X361950Y184150D03*
M02*
