G04 EAGLE Gerber RS-274X export*
G75*
%MOMM*%
%FSLAX34Y34*%
%LPD*%
%INSolderpaste Top*%
%IPPOS*%
%AMOC8*
5,1,8,0,0,1.08239X$1,22.5*%
G01*
%ADD10R,2.250000X1.750000*%
%ADD11R,1.750000X2.250000*%
%ADD12R,1.200000X1.400000*%
%ADD13R,1.050000X1.800000*%
%ADD14R,1.800000X1.050000*%


D10*
X63500Y154700D03*
X63500Y124700D03*
D11*
X99300Y266700D03*
X129300Y266700D03*
D10*
X292100Y154700D03*
X292100Y124700D03*
D11*
X315200Y266700D03*
X345200Y266700D03*
D12*
X23100Y317500D03*
X53100Y317500D03*
X239000Y317500D03*
X269000Y317500D03*
X459500Y139700D03*
X429500Y139700D03*
D13*
X124700Y203200D03*
X154700Y203200D03*
X302500Y203200D03*
X332500Y203200D03*
X281700Y203200D03*
X251700Y203200D03*
D14*
X330200Y124700D03*
X330200Y154700D03*
D13*
X416800Y177800D03*
X446800Y177800D03*
X416800Y101600D03*
X446800Y101600D03*
D14*
X368300Y124700D03*
X368300Y154700D03*
D13*
X99300Y304800D03*
X129300Y304800D03*
X73900Y203200D03*
X103900Y203200D03*
X53100Y203200D03*
X23100Y203200D03*
D14*
X101600Y124700D03*
X101600Y154700D03*
X127000Y124700D03*
X127000Y154700D03*
D13*
X434100Y279400D03*
X404100Y279400D03*
X383300Y203200D03*
X353300Y203200D03*
X315200Y304800D03*
X345200Y304800D03*
M02*
