M48
;GenerationSoftware,Autodesk,EAGLE,9.3.0*%
;CreationDate,2019-04-02T20:10:25Z*%
FMAT,2
ICI,OFF
METRIC,TZ,000.000
T8C0.508
T7C0.700
T6C0.880
T5C1.016
T4C1.060
T3C1.200
T2C2.693
T1C3.200
%
G90
M71
T1
X88900Y8890
X19050Y3810
X19050Y29210
X88900Y29210
T2
X7620Y3810
X35500Y7510
X28000Y7510
X31750Y3810
X3870Y7510
X11370Y7510
T3
X85090Y16970
X90170Y16970
X52070Y16970
X52070Y1270
X54610Y1270
X57150Y1270
X59690Y1270
X62230Y1270
X64770Y1270
X67310Y1270
X69850Y1270
X72390Y1270
X74930Y1270
X77470Y1270
X80010Y1270
X54610Y16970
X85090Y1270
X87630Y1270
X90170Y1270
X92710Y1270
X92710Y16970
X82550Y1270
X87630Y16970
X57150Y16970
X82550Y16970
X80010Y16970
X77470Y16970
X74930Y16970
X72390Y16970
X69850Y16970
X67310Y16970
X64770Y16970
X62230Y16970
X59690Y16970
T4
X40640Y2360
X43180Y2360
X45720Y2360
T5
X44628Y6350
X44628Y21590
X41732Y6350
X41732Y21590
T6
X25200Y26480
X6550Y26480
X5080Y25730
X3610Y26480
X28140Y26480
X26670Y25730
T7
X25400Y12700
X25400Y15240
X2540Y12700
X2540Y15240
T8
X36195Y18415
X26670Y20955
X36830Y20320
X24130Y29845
X6350Y22860
M30